<?xml version="1.0" standalone="no"?>
<!DOCTYPE svg PUBLIC "-//W3C//DTD SVG 1.1//EN" "http://www.w3.org/Graphics/SVG/1.1/DTD/svg11.dtd" >
<svg xmlns="http://www.w3.org/2000/svg">
<metadata>Generated by IcoMoon</metadata>
<defs>
<font id="vass" horiz-adv-x="1024">
<font-face units-per-em="1024" ascent="960" descent="-64" />
<missing-glyph horiz-adv-x="1024" />
<glyph unicode="&#x20;" horiz-adv-x="512" d="" />
<glyph unicode="&#xe900;" glyph-name="aleatorio" d="M838.277 613.827c-0.205 0.686-0.358 1.382-0.635 2.048-0.297 0.696-0.696 1.341-1.065 1.997-0.276 0.512-0.502 1.044-0.819 1.516-0.758 1.126-1.618 2.191-2.57 3.144l-81.91 81.91c-7.997 7.997-20.961 7.997-28.959 0s-7.997-20.961 0-28.959l46.961-46.961h-102.4l-327.68-327.68h-134.881c-11.305 0-20.48-9.175-20.48-20.48s9.175-20.48 20.48-20.48h151.839l327.68 327.68h85.443l-46.961-46.961c-7.997-7.997-7.997-20.961 0-28.959 4.004-4.004 9.236-6.001 14.479-6.001s10.476 1.997 14.479 6.001l81.91 81.91c0.952 0.952 1.812 2.007 2.57 3.144 0.317 0.481 0.543 1.014 0.819 1.516 0.358 0.655 0.758 1.3 1.065 1.997 0.266 0.666 0.43 1.362 0.635 2.048 0.174 0.594 0.399 1.157 0.532 1.772 0.522 2.652 0.522 5.366 0 8.018-0.133 0.625-0.369 1.198-0.532 1.782zM837.642 272.538c0.266 0.666 0.43 1.362 0.635 2.048 0.174 0.594 0.399 1.157 0.532 1.772 0.522 2.652 0.522 5.366 0 8.018-0.133 0.614-0.358 1.178-0.532 1.772-0.205 0.686-0.358 1.382-0.635 2.048-0.297 0.696-0.696 1.341-1.065 1.997-0.276 0.512-0.502 1.044-0.819 1.516-0.758 1.126-1.618 2.191-2.57 3.144l-81.91 81.91c-7.997 7.997-20.961 7.997-28.959 0s-7.997-20.961 0-28.959l46.961-46.961h-85.443l-96.399 96.399c-7.997 7.997-20.961 7.997-28.959 0s-7.997-20.961 0-28.959l108.401-108.39h102.4l-46.961-46.961c-7.997-7.997-7.997-20.961 0-28.959 4.004-4.004 9.236-6.001 14.479-6.001s10.476 1.997 14.479 6.001l81.91 81.91c0.952 0.952 1.812 2.007 2.57 3.144 0.317 0.481 0.543 1.014 0.819 1.516 0.369 0.655 0.768 1.3 1.065 1.997zM204.319 587.571h134.881l96.399-96.399c4.004-4.004 9.236-6.001 14.479-6.001s10.476 1.997 14.479 6.001c7.997 7.997 7.997 20.961 0 28.959l-108.401 108.401h-151.839c-11.305 0-20.48-9.175-20.48-20.48s9.175-20.48 20.48-20.48z" />
<glyph unicode="&#xe901;" glyph-name="articulo" d="M816.681 730.911l-304.486-40.602-304.486 40.602c-5.898 0.809-11.756-1.004-16.2-4.895s-6.994-9.513-6.994-15.411v-491.52c0-10.26 7.598-18.944 17.766-20.296l307.2-40.96c0.901-0.123 1.812-0.184 2.714-0.184s1.812 0.061 2.714 0.184l307.2 40.96c10.168 1.362 17.766 10.035 17.766 20.296v491.52c0 5.898-2.55 11.52-6.994 15.411s-10.291 5.642-16.2 4.895zM225.475 687.217l266.24-35.502v-450.191l-266.24 35.502v450.191zM798.915 237.025l-266.24-35.502v450.202l266.24 35.502v-450.202zM284.375 587.889l163.84-20.48c0.86-0.113 1.72-0.164 2.57-0.164 10.168 0 19.005 7.578 20.296 17.94 1.403 11.223-6.564 21.463-17.777 22.856l-163.84 20.48c-11.192 1.434-21.463-6.554-22.856-17.777-1.413-11.213 6.543-21.453 17.766-22.856zM453.294 505.651l-163.84 20.48c-11.192 1.475-21.463-6.554-22.856-17.777-1.403-11.223 6.564-21.463 17.777-22.856l163.84-20.48c0.86-0.113 1.72-0.164 2.57-0.164 10.168 0 19.005 7.578 20.296 17.94 1.393 11.213-6.564 21.453-17.787 22.856zM453.294 403.251l-163.84 20.48c-11.192 1.454-21.463-6.554-22.856-17.777-1.403-11.223 6.564-21.463 17.777-22.856l163.84-20.48c0.86-0.113 1.72-0.164 2.57-0.164 10.168 0 19.005 7.578 20.296 17.94 1.393 11.213-6.564 21.453-17.787 22.856zM453.294 300.851l-163.84 20.48c-11.192 1.434-21.463-6.554-22.856-17.777-1.403-11.223 6.564-21.463 17.777-22.856l163.84-20.48c0.86-0.113 1.72-0.164 2.57-0.164 10.168 0 19.005 7.578 20.296 17.94 1.393 11.213-6.564 21.453-17.787 22.856zM573.604 567.255c0.85 0 1.71 0.051 2.57 0.164l163.84 20.48c11.223 1.403 19.18 11.643 17.777 22.856-1.403 11.233-11.766 19.21-22.856 17.777l-163.84-20.48c-11.223-1.403-19.18-11.643-17.777-22.856 1.28-10.363 10.117-17.94 20.285-17.94zM573.604 464.855c0.85 0 1.71 0.051 2.57 0.164l163.84 20.48c11.223 1.403 19.18 11.643 17.777 22.856-1.403 11.233-11.766 19.251-22.856 17.777l-163.84-20.48c-11.223-1.403-19.18-11.643-17.777-22.856 1.28-10.363 10.117-17.94 20.285-17.94zM573.604 362.455c0.85 0 1.71 0.051 2.57 0.164l163.84 20.48c11.223 1.403 19.18 11.643 17.777 22.856-1.403 11.233-11.766 19.231-22.856 17.777l-163.84-20.48c-11.223-1.403-19.18-11.643-17.777-22.856 1.28-10.363 10.117-17.94 20.285-17.94zM734.935 321.331l-163.84-20.48c-11.223-1.403-19.18-11.643-17.777-22.856 1.29-10.363 10.117-17.94 20.296-17.94 0.85 0 1.71 0.051 2.57 0.164l163.84 20.48c11.223 1.403 19.18 11.643 17.777 22.856-1.413 11.223-11.766 19.21-22.866 17.777z" />
<glyph unicode="&#xe902;" glyph-name="baja" d="M679.086 512.051l-159.191-168.55-159.191 168.55c-7.762 8.233-20.726 8.591-28.948 0.829s-8.591-20.726-0.829-28.948l174.080-184.32c3.871-4.096 9.257-6.42 14.889-6.42s11.018 2.324 14.889 6.42l174.080 184.32c7.762 8.223 7.393 21.187-0.829 28.948-8.212 7.752-21.176 7.383-28.948-0.829zM519.895 774.472c-87.532 0-169.82-34.089-231.7-95.99-61.891-61.891-95.98-144.169-95.98-231.69s34.089-169.81 95.98-231.69c61.891-61.901 144.169-95.99 231.7-95.99s169.81 34.089 231.69 95.98c61.901 61.891 95.99 144.169 95.99 231.7 0 87.521-34.099 169.8-95.99 231.69-61.88 61.891-144.159 95.99-231.69 95.99zM722.627 244.060c-54.149-54.159-126.136-83.988-202.721-83.988-76.595 0-148.582 29.829-202.742 83.988-54.159 54.149-83.978 126.147-83.978 202.732 0 76.575 29.829 148.582 83.988 202.732 54.149 54.159 126.147 83.988 202.732 83.988s148.582-29.829 202.732-83.999c54.159-54.149 83.999-126.147 83.999-202.721-0.010-76.585-29.839-148.582-84.009-202.732z" />
<glyph unicode="&#xe903;" glyph-name="bandera" d="M363.315 783.749c-11.315 0-20.48-9.175-20.48-20.48v-614.4c0-11.305 9.165-20.48 20.48-20.48 11.305 0 20.48 9.175 20.48 20.48v307.2h389.12c7.096 0 13.691 3.676 17.418 9.718 3.727 6.031 4.065 13.578 0.901 19.927l-56.863 113.715 56.863 113.725c3.174 6.349 2.826 13.885-0.901 19.927s-10.322 9.718-17.418 9.718h-389.12v20.48c0 11.295-9.175 20.47-20.48 20.47zM739.779 701.829l-46.623-93.245c-2.877-5.765-2.877-12.554 0-18.319l46.623-93.245h-355.983v204.8h355.983z" />
<glyph unicode="&#xe904;" glyph-name="basura" d="M592.947 785.193h-143.36c-11.305 0-20.48-9.175-20.48-20.48v-61.44h-133.12c-11.305 0-20.48-9.175-20.48-20.48s9.175-20.48 20.48-20.48h20.48v-512c0-11.305 9.175-20.48 20.48-20.48h368.64c11.315 0 20.48 9.175 20.48 20.48v512h20.48c11.315 0 20.48 9.175 20.48 20.48s-9.165 20.48-20.48 20.48h-133.12v61.44c0 11.315-9.155 20.48-20.48 20.48zM685.107 662.313v-491.52h-327.68v491.52h327.68zM470.067 703.273v40.96h102.4v-40.96h-102.4zM459.827 211.753c11.315 0 20.48 9.175 20.48 20.48v348.16c0 11.305-9.165 20.48-20.48 20.48-11.305 0-20.48-9.175-20.48-20.48v-348.16c0-11.305 9.185-20.48 20.48-20.48zM582.707 211.753c11.315 0 20.48 9.175 20.48 20.48v348.16c0 11.305-9.165 20.48-20.48 20.48-11.305 0-20.48-9.175-20.48-20.48v-348.16c0-11.305 9.185-20.48 20.48-20.48z" />
<glyph unicode="&#xe905;" glyph-name="buscar" d="M917.391 95.642c-4.424 0-8.858 1.423-12.605 4.352l-339.876 265.83c-47.913-52.859-117.094-86.118-193.894-86.118-144.292 0-261.693 117.391-261.693 261.693 0 144.292 117.391 261.693 261.693 261.693s261.693-117.391 261.693-261.693c0-52.808-15.718-102.001-42.732-143.165l340.050-265.974c8.909-6.973 10.476-19.845 3.512-28.754-4.045-5.161-10.066-7.864-16.148-7.864zM371.016 762.122c-121.713 0-220.733-99.021-220.733-220.733s99.021-220.733 220.733-220.733 220.733 99.021 220.733 220.733-99.021 220.733-220.733 220.733z" />
<glyph unicode="&#xe906;" glyph-name="cafe" d="M306.227 510.996v-286.72c0-35.42 21.402-102.4 102.4-102.4h163.84c80.998 0 102.4 66.98 102.4 102.4v20.48h61.44c11.315 0 20.48 9.175 20.48 20.48v163.84c0 11.305-9.165 20.48-20.48 20.48h-61.44v61.44c0 11.305-9.165 20.48-20.48 20.48h-327.68c-11.295 0-20.48-9.175-20.48-20.48zM715.827 408.596v-122.88h-40.96v122.88h40.96zM347.187 490.516h286.72v-266.117c-0.113-10.281-3.625-61.563-61.44-61.563h-163.84c-57.805 0-61.317 51.282-61.44 61.44v266.24zM377.907 654.356c-11.305 0-20.48-9.175-20.48-20.48v-40.96c0-11.305 9.175-20.48 20.48-20.48 11.315 0 20.48 9.175 20.48 20.48v20.48h81.92c11.315 0 20.48 9.175 20.48 20.48v61.44c0 11.305-9.165 20.48-20.48 20.48h-51.2v40.96c0 11.305-9.165 20.48-20.48 20.48-11.305 0-20.48-9.175-20.48-20.48v-61.44c0-11.315 9.175-20.48 20.48-20.48h51.2v-20.48h-81.92zM541.747 654.356c-11.305 0-20.48-9.175-20.48-20.48v-40.96c0-11.305 9.175-20.48 20.48-20.48 11.315 0 20.48 9.175 20.48 20.48v20.48h81.92c11.315 0 20.48 9.175 20.48 20.48v81.92c0 11.305-9.165 20.48-20.48 20.48h-51.2v20.48c0 11.305-9.165 20.48-20.48 20.48-11.305 0-20.48-9.175-20.48-20.48v-40.96c0-11.315 9.175-20.48 20.48-20.48h51.2v-40.96h-81.92z" />
<glyph unicode="&#xe907;" glyph-name="calendario" d="M821.985 703.273h-81.92v20.48c0 11.305-9.175 20.48-20.48 20.48h-61.44c-11.315 0-20.48-9.175-20.48-20.48v-20.48h-245.76v20.48c0 11.305-9.175 20.48-20.48 20.48h-61.44c-11.315 0-20.48-9.175-20.48-20.48v-20.48h-81.92c-11.315 0-20.48-9.175-20.48-20.48v-491.52c0-11.305 9.165-20.48 20.48-20.48h614.4c11.305 0 20.48 9.175 20.48 20.48v491.52c0 11.315-9.165 20.48-20.48 20.48zM678.625 703.273h20.48v-40.96h-20.48v40.96zM330.465 703.273h20.48v-40.96h-20.48v40.96zM801.505 211.753h-573.44v450.56h61.44v-20.48c0-11.305 9.165-20.48 20.48-20.48h61.44c11.305 0 20.48 9.175 20.48 20.48v20.48h245.76v-20.48c0-11.305 9.165-20.48 20.48-20.48h61.44c11.305 0 20.48 9.175 20.48 20.48v20.48h61.44v-450.56zM391.905 539.433h-81.92c-11.315 0-20.48-9.175-20.48-20.48v-81.92c0-11.305 9.165-20.48 20.48-20.48h81.92c11.305 0 20.48 9.175 20.48 20.48v81.92c0 11.315-9.165 20.48-20.48 20.48zM371.425 457.513h-40.96v40.96h40.96v-40.96zM555.745 539.433h-81.92c-11.315 0-20.48-9.175-20.48-20.48v-81.92c0-11.305 9.165-20.48 20.48-20.48h81.92c11.305 0 20.48 9.175 20.48 20.48v81.92c0 11.315-9.165 20.48-20.48 20.48zM535.265 457.513h-40.96v40.96h40.96v-40.96zM719.585 539.433h-81.92c-11.315 0-20.48-9.175-20.48-20.48v-81.92c0-11.305 9.165-20.48 20.48-20.48h81.92c11.305 0 20.48 9.175 20.48 20.48v81.92c0 11.315-9.165 20.48-20.48 20.48zM699.105 457.513h-40.96v40.96h40.96v-40.96zM391.905 375.593h-81.92c-11.315 0-20.48-9.175-20.48-20.48v-81.92c0-11.305 9.165-20.48 20.48-20.48h81.92c11.305 0 20.48 9.175 20.48 20.48v81.92c0 11.315-9.165 20.48-20.48 20.48zM371.425 293.673h-40.96v40.96h40.96v-40.96zM555.745 375.593h-81.92c-11.315 0-20.48-9.175-20.48-20.48v-81.92c0-11.305 9.165-20.48 20.48-20.48h81.92c11.305 0 20.48 9.175 20.48 20.48v81.92c0 11.315-9.165 20.48-20.48 20.48zM535.265 293.673h-40.96v40.96h40.96v-40.96zM719.585 375.593h-81.92c-11.315 0-20.48-9.175-20.48-20.48v-81.92c0-11.305 9.165-20.48 20.48-20.48h81.92c11.305 0 20.48 9.175 20.48 20.48v81.92c0 11.315-9.165 20.48-20.48 20.48zM699.105 293.673h-40.96v40.96h40.96v-40.96z" />
<glyph unicode="&#xe908;" glyph-name="camara_fotos" d="M182.61 233.472c0-11.305 9.165-20.48 20.48-20.48h614.4c11.305 0 20.48 9.175 20.48 20.48v368.64c0 11.305-9.175 20.48-20.48 20.48h-430.080v40.96c0 11.305-9.175 20.48-20.48 20.48h-102.4c-11.315 0-20.48-9.175-20.48-20.48v-40.96h-40.96c-11.315 0-20.48-9.175-20.48-20.48v-368.64zM285.010 643.072h61.44v-20.48h-61.44v20.48zM223.57 581.632h573.44v-327.68h-573.44v327.68zM592.21 540.672c-67.758 0-122.88-55.122-122.88-122.88s55.122-122.88 122.88-122.88c67.758 0 122.88 55.122 122.88 122.88s-55.132 122.88-122.88 122.88zM592.21 335.872c-45.169 0-81.92 36.751-81.92 81.92s36.751 81.92 81.92 81.92c45.169 0 81.92-36.751 81.92-81.92s-36.751-81.92-81.92-81.92zM346.45 530.432h-61.44c-11.315 0-20.48-9.175-20.48-20.48s9.165-20.48 20.48-20.48h61.44c11.305 0 20.48 9.175 20.48 20.48s-9.175 20.48-20.48 20.48z" />
<glyph unicode="&#xe909;" glyph-name="candado_01" d="M329.718 599.429v-143.36h-61.44c-11.315 0-20.48-9.175-20.48-20.48v-286.72c0-11.305 9.165-20.48 20.48-20.48h491.52c11.305 0 20.48 9.175 20.48 20.48v286.72c0 11.305-9.175 20.48-20.48 20.48h-61.44v143.36c0 101.632-82.688 184.32-184.32 184.32s-184.32-82.688-184.32-184.32zM739.318 169.349h-450.56v245.76h450.56v-245.76zM514.038 742.789c79.053 0 143.36-64.307 143.36-143.36v-143.36h-286.72v143.36c0 79.053 64.317 143.36 143.36 143.36zM514.038 374.149c-33.884 0-61.44-27.556-61.44-61.44 0-26.685 17.142-49.398 40.96-57.856v-24.064c0-11.305 9.165-20.48 20.48-20.48 11.305 0 20.48 9.175 20.48 20.48v24.064c23.818 8.458 40.96 31.171 40.96 57.856 0 33.884-27.556 61.44-61.44 61.44zM514.038 292.229c-11.295 0-20.48 9.185-20.48 20.48s9.185 20.48 20.48 20.48c11.284 0 20.48-9.185 20.48-20.48s-9.185-20.48-20.48-20.48z" />
<glyph unicode="&#xe90a;" glyph-name="candado_02" d="M247.798 435.589v-286.72c0-11.305 9.165-20.48 20.48-20.48h491.52c11.305 0 20.48 9.175 20.48 20.48v286.72c0 11.305-9.175 20.48-20.48 20.48h-389.12v143.36c0 79.053 64.307 143.36 143.36 143.36s143.36-64.307 143.36-143.36v-40.96c0-11.305 9.165-20.48 20.48-20.48 11.305 0 20.48 9.175 20.48 20.48v40.96c0 101.632-82.688 184.32-184.32 184.32s-184.32-82.688-184.32-184.32v-143.36h-61.44c-11.305 0-20.48-9.175-20.48-20.48zM288.758 415.109h450.56v-245.76h-450.56v245.76zM514.038 374.149c-33.884 0-61.44-27.556-61.44-61.44 0-26.685 17.142-49.398 40.96-57.856v-24.064c0-11.305 9.165-20.48 20.48-20.48 11.305 0 20.48 9.175 20.48 20.48v24.064c23.818 8.458 40.96 31.171 40.96 57.856 0 33.884-27.556 61.44-61.44 61.44zM514.038 292.229c-11.295 0-20.48 9.185-20.48 20.48s9.185 20.48 20.48 20.48c11.284 0 20.48-9.185 20.48-20.48s-9.185-20.48-20.48-20.48z" />
<glyph unicode="&#xe90b;" glyph-name="carpeta_01" d="M188.416 677.919v-450.56c0-11.305 9.175-20.48 20.48-20.48h614.4c11.305 0 20.48 9.175 20.48 20.48v368.64c0 11.305-9.175 20.48-20.48 20.48h-319.191l-75.93 75.919c-3.84 3.84-9.052 6.001-14.479 6.001h-204.8c-11.305 0-20.48-9.175-20.48-20.48zM229.376 657.439h175.831l75.93-75.919c3.84-3.84 9.052-6.001 14.479-6.001h307.2v-327.68h-573.44v409.6z" />
<glyph unicode="&#xe90c;" glyph-name="carpeta_02" d="M823.296 616.479h-319.191l-75.93 75.919c-3.84 3.84-9.052 6.001-14.479 6.001h-204.8c-11.315 0-20.48-9.175-20.48-20.48v-450.56c0-11.305 9.165-20.48 20.48-20.48h614.4c11.305 0 20.48 9.175 20.48 20.48v368.64c0 11.305-9.165 20.48-20.48 20.48zM802.816 247.839h-573.44v409.6h175.831l75.919-75.919c3.84-3.84 9.052-6.001 14.479-6.001h307.2v-327.68zM495.616 432.159h-81.92c-11.315 0-20.48-9.175-20.48-20.48s9.165-20.48 20.48-20.48h81.92v-81.92c0-11.305 9.165-20.48 20.48-20.48 11.305 0 20.48 9.175 20.48 20.48v81.92h81.92c11.305 0 20.48 9.175 20.48 20.48s-9.175 20.48-20.48 20.48h-81.92v81.92c0 11.305-9.175 20.48-20.48 20.48-11.315 0-20.48-9.175-20.48-20.48v-81.92z" />
<glyph unicode="&#xe90d;" glyph-name="carpeta_03" d="M188.416 227.359c0-11.305 9.165-20.48 20.48-20.48h614.4c11.305 0 20.48 9.175 20.48 20.48v368.64c0 11.305-9.175 20.48-20.48 20.48h-319.191l-75.93 75.919c-3.84 3.84-9.052 6.001-14.479 6.001h-204.8c-11.315 0-20.48-9.175-20.48-20.48v-450.56zM229.376 657.439h175.831l75.919-75.919c3.84-3.84 9.052-6.001 14.479-6.001h307.2v-327.68h-573.44v409.6zM612.495 508.078c-7.987 7.997-20.972 7.997-28.959 0l-67.441-67.441-67.441 67.441c-7.987 7.997-20.972 7.997-28.959 0-7.997-7.997-7.997-20.961 0-28.959l67.441-67.441-67.441-67.441c-7.997-7.997-7.997-20.961 0-28.959 3.994-4.004 9.236-6.001 14.479-6.001s10.486 1.997 14.479 6.001l67.441 67.441 67.441-67.441c3.994-4.004 9.236-6.001 14.479-6.001s10.486 1.997 14.479 6.001c7.997 7.997 7.997 20.961 0 28.959l-67.441 67.441 67.441 67.441c7.997 7.997 7.997 20.961 0 28.959z" />
<glyph unicode="&#xe90f;" glyph-name="charla" d="M222.269 201.032l81.92-81.92c3.84-3.84 9.062-6.001 14.479-6.001h61.44c5.437 0 10.639 2.161 14.479 6.001l210.801 210.801 32.481-32.481-67.441-67.441c-7.997-7.997-7.997-20.961 0-28.959s20.961-7.997 28.959 0l81.92 81.92c7.997 7.997 7.997 20.961 0 28.959l-61.44 61.44c-7.997 7.997-20.961 7.997-28.959 0l-219.279-219.279h-44.483l-61.44 61.44 12.001 12.001 26.481-26.481c4.004-4.004 9.236-6.001 14.479-6.001s10.476 1.997 14.479 6.001l265.144 265.144c12.145-3.082 24.76-4.905 37.816-4.905 84.695 0 153.6 68.905 153.6 153.6s-68.905 153.6-153.6 153.6c-84.705 0-153.6-68.905-153.6-153.6 0-13.066 1.823-25.702 4.895-37.816l-265.134-265.144c-7.997-7.997-7.997-20.961 0-28.959l26.481-26.481-26.481-26.481c-7.997-8.008-7.997-20.961 0-28.959zM636.109 727.511c62.116 0 112.64-50.534 112.64-112.64s-50.524-112.64-112.64-112.64c-62.106 0-112.64 50.534-112.64 112.64s50.545 112.64 112.64 112.64zM557.414 483.205l-54.415-54.415-52.961 52.961 54.415 54.415c13.036-21.719 31.232-39.916 52.961-52.961zM421.069 452.792l52.961-52.961-155.361-155.361-52.961 52.961 155.361 155.361z" />
<glyph unicode="&#xe910;" glyph-name="chat" d="M759.654 733.778h-467.323c-42.199 0-76.524-34.335-76.524-76.524v-273.234c0-42.189 34.324-76.524 76.524-76.524h284.088l112.527-112.527c8.305-8.315 19.354-12.882 31.089-12.882 5.765 0 11.418 1.116 16.814 3.348 16.486 6.82 27.136 22.764 27.136 40.612v81.572c40.182 2.263 72.182 35.656 72.182 76.401v273.244c0 42.189-34.324 76.513-76.513 76.513zM795.208 384.020c0-19.61-15.954-35.564-35.564-35.564h-16.138c-11.305 0-20.48-9.175-20.48-20.48v-101.929c0-1.219-0.717-2.304-1.823-2.765-0.86-0.348-1.894-0.768-3.297 0.635l-118.528 118.538c-3.84 3.84-9.052 6.001-14.479 6.001h-292.567c-19.61 0-35.564 15.954-35.564 35.564v273.234c0 19.61 15.954 35.564 35.564 35.564h467.313c19.61 0 35.564-15.954 35.564-35.564v-273.234zM623.299 563.661c11.305 0 20.48 9.175 20.48 20.48s-9.175 20.48-20.48 20.48h-27.996v26.788c0 11.305-9.175 20.48-20.48 20.48s-20.48-9.175-20.48-20.48v-26.788h-58.153v26.788c0 11.305-9.175 20.48-20.48 20.48s-20.48-9.175-20.48-20.48v-26.788h-25.569c-11.305 0-20.48-9.175-20.48-20.48s9.175-20.48 20.48-20.48h25.569v-58.153h-25.569c-11.305 0-20.48-9.175-20.48-20.48s9.175-20.48 20.48-20.48h25.569v-26.788c0-11.305 9.175-20.48 20.48-20.48s20.48 9.175 20.48 20.48v26.788h58.153v-26.788c0-11.305 9.175-20.48 20.48-20.48s20.48 9.175 20.48 20.48v26.788h27.996c11.305 0 20.48 9.175 20.48 20.48s-9.175 20.48-20.48 20.48h-27.996v58.153h27.996zM554.342 505.508h-58.153v58.153h58.153v-58.153z" />
<glyph unicode="&#xe911;" glyph-name="chat_01" d="M455.629 387.072c11.305 0 20.48 9.175 20.48 20.48 0 19.528 21.432 40.96 40.96 40.96s40.96-21.432 40.96-40.96c0-11.305 9.165-20.48 20.48-20.48 11.305 0 20.48 9.175 20.48 20.48 0 42.107-39.813 81.92-81.92 81.92s-81.92-39.813-81.92-81.92c0-11.315 9.165-20.48 20.48-20.48zM414.669 550.912c5.427 0 10.65 2.15 14.438 5.939 3.891 3.891 6.042 9.114 6.042 14.541s-2.15 10.65-6.042 14.438c-7.578 7.68-21.299 7.68-28.877 0-3.891-3.789-6.042-9.011-6.042-14.438s2.15-10.65 6.042-14.541c3.789-3.789 9.011-5.939 14.438-5.939zM619.469 550.912c5.325 0 10.65 2.15 14.541 6.042 3.789 3.789 5.939 9.114 5.939 14.438s-2.15 10.65-6.042 14.541c-7.578 7.578-21.299 7.578-28.877-0.102-3.891-3.789-6.042-9.011-6.042-14.438s2.15-10.65 6.042-14.541c3.789-3.789 9.114-5.939 14.438-5.939zM189.389 294.912c0-11.305 9.165-20.48 20.48-20.48h143.36v-102.4c0-7.997 4.659-15.268 11.919-18.606 2.744-1.26 5.652-1.874 8.55-1.874 4.803 0 9.554 1.69 13.332 4.925l137.615 117.955h299.622c11.305 0 20.48 9.175 20.48 20.48v430.080c0 11.305-9.175 20.48-20.48 20.48h-614.4c-11.315 0-20.48-9.175-20.48-20.48v-430.080zM230.349 704.512h573.44v-389.12h-286.72c-4.895 0-9.615-1.751-13.332-4.925l-109.548-93.901v78.346c0 11.305-9.175 20.48-20.48 20.48h-143.36v389.12z" />
<glyph unicode="&#xe912;" glyph-name="chat_02" d="M578.509 489.472c-11.305 0-20.48-9.175-20.48-20.48 0-19.528-21.432-40.96-40.96-40.96s-40.96 21.432-40.96 40.96c0 11.305-9.165 20.48-20.48 20.48-11.305 0-20.48-9.175-20.48-20.48 0-42.107 39.813-81.92 81.92-81.92s81.92 39.813 81.92 81.92c0 11.305-9.175 20.48-20.48 20.48zM414.669 550.912c5.427 0 10.65 2.15 14.438 5.939 3.891 3.891 6.042 9.114 6.042 14.541s-2.15 10.65-6.042 14.438c-7.578 7.68-21.299 7.68-28.877 0-3.891-3.789-6.042-9.011-6.042-14.438s2.15-10.65 6.042-14.541c3.789-3.789 9.011-5.939 14.438-5.939zM619.469 550.912c5.325 0 10.65 2.15 14.541 6.042 3.789 3.789 5.939 9.114 5.939 14.438s-2.15 10.65-6.042 14.541c-7.578 7.578-21.299 7.578-28.877-0.102-3.891-3.789-6.042-9.011-6.042-14.438s2.15-10.65 6.042-14.541c3.789-3.789 9.114-5.939 14.438-5.939zM189.389 294.912c0-11.305 9.165-20.48 20.48-20.48h143.36v-102.4c0-7.997 4.659-15.268 11.919-18.606 2.744-1.26 5.652-1.874 8.55-1.874 4.803 0 9.554 1.69 13.332 4.925l137.615 117.955h299.622c11.305 0 20.48 9.175 20.48 20.48v430.080c0 11.305-9.175 20.48-20.48 20.48h-614.4c-11.315 0-20.48-9.175-20.48-20.48v-430.080zM230.349 704.512h573.44v-389.12h-286.72c-4.895 0-9.615-1.751-13.332-4.925l-109.548-93.901v78.346c0 11.305-9.175 20.48-20.48 20.48h-143.36v389.12z" />
<glyph unicode="&#xe914;" glyph-name="chat_04" d="M824.269 745.472h-614.4c-11.315 0-20.48-9.175-20.48-20.48v-430.080c0-11.305 9.165-20.48 20.48-20.48h143.36v-102.4c0-7.997 4.659-15.268 11.919-18.606 2.744-1.26 5.663-1.874 8.561-1.874 4.803 0 9.544 1.69 13.332 4.925l137.605 117.955h299.622c11.305 0 20.48 9.175 20.48 20.48v430.080c0 11.305-9.175 20.48-20.48 20.48zM803.789 315.392h-286.72c-4.895 0-9.626-1.751-13.332-4.925l-109.548-93.901v78.346c0 11.305-9.175 20.48-20.48 20.48h-143.36v389.12h573.44v-389.12zM430.909 423.793c4.004-4.004 9.236-6.001 14.479-6.001s10.476 1.997 14.479 6.001l57.201 57.201 57.201-57.201c4.004-4.004 9.236-6.001 14.479-6.001s10.476 1.997 14.479 6.001c7.997 7.997 7.997 20.961 0 28.959l-57.201 57.201 57.201 57.201c7.997 7.997 7.997 20.961 0 28.959s-20.961 7.997-28.959 0l-57.201-57.201-57.201 57.201c-7.997 7.997-20.961 7.997-28.959 0s-7.997-20.961 0-28.959l57.201-57.201-57.201-57.201c-7.997-7.997-7.997-20.972 0-28.959z" />
<glyph unicode="&#xe915;" glyph-name="chat_05" d="M287.724 590.193h450.56c11.305 0 20.48 9.175 20.48 20.48s-9.175 20.48-20.48 20.48h-450.56c-11.305 0-20.48-9.175-20.48-20.48s9.175-20.48 20.48-20.48zM287.724 487.793h450.56c11.305 0 20.48 9.175 20.48 20.48s-9.175 20.48-20.48 20.48h-450.56c-11.305 0-20.48-9.175-20.48-20.48s9.175-20.48 20.48-20.48zM758.764 405.873c0 11.305-9.175 20.48-20.48 20.48h-450.56c-11.305 0-20.48-9.175-20.48-20.48s9.175-20.48 20.48-20.48h450.56c11.315 0 20.48 9.165 20.48 20.48zM185.324 293.233c0-11.305 9.175-20.48 20.48-20.48h143.36v-102.4c0-7.997 4.659-15.268 11.919-18.606 2.734-1.26 5.652-1.874 8.55-1.874 4.803 0 9.554 1.69 13.332 4.925l137.605 117.955h299.622c11.305 0 20.48 9.175 20.48 20.48v430.080c0 11.305-9.175 20.48-20.48 20.48h-614.4c-11.305 0-20.48-9.175-20.48-20.48v-430.080zM226.284 702.833h573.44v-389.12h-286.72c-4.895 0-9.615-1.751-13.332-4.925l-109.548-93.901v78.346c0 11.305-9.175 20.48-20.48 20.48h-143.36v389.12z" />
<glyph unicode="&#xe916;" glyph-name="chat_06" d="M513.004 446.833c33.884 0 61.44 27.556 61.44 61.44s-27.556 61.44-61.44 61.44c-33.884 0-61.44-27.556-61.44-61.44s27.566-61.44 61.44-61.44zM513.004 528.753c11.295 0 20.48-9.185 20.48-20.48s-9.185-20.48-20.48-20.48-20.48 9.185-20.48 20.48 9.185 20.48 20.48 20.48zM349.164 446.833c33.884 0 61.44 27.556 61.44 61.44s-27.556 61.44-61.44 61.44c-33.884 0-61.44-27.556-61.44-61.44s27.566-61.44 61.44-61.44zM349.164 528.753c11.295 0 20.48-9.185 20.48-20.48s-9.185-20.48-20.48-20.48-20.48 9.185-20.48 20.48 9.185 20.48 20.48 20.48zM676.844 446.833c33.884 0 61.44 27.556 61.44 61.44s-27.556 61.44-61.44 61.44c-33.884 0-61.44-27.556-61.44-61.44s27.566-61.44 61.44-61.44zM676.844 528.753c11.295 0 20.48-9.185 20.48-20.48s-9.185-20.48-20.48-20.48c-11.295 0-20.48 9.185-20.48 20.48s9.185 20.48 20.48 20.48zM820.204 743.793h-614.4c-11.315 0-20.48-9.175-20.48-20.48v-430.080c0-11.305 9.165-20.48 20.48-20.48h143.36v-102.4c0-7.997 4.659-15.268 11.919-18.606 2.734-1.26 5.652-1.874 8.55-1.874 4.803 0 9.554 1.69 13.332 4.925l137.605 117.955h299.622c11.305 0 20.48 9.175 20.48 20.48v430.080c0.010 11.305-9.155 20.48-20.47 20.48zM799.724 313.713h-286.72c-4.895 0-9.615-1.751-13.332-4.925l-109.548-93.901v78.346c0 11.305-9.175 20.48-20.48 20.48h-143.36v389.12h573.44v-389.12z" />
<glyph unicode="&#xe917;" glyph-name="cierra" d="M551.086 445.143l99.164 99.164c8.468 8.468 8.468 22.211 0 30.689s-22.211 8.468-30.689 0l-99.164-99.164-99.164 99.164c-8.468 8.468-22.211 8.468-30.689 0-8.468-8.468-8.468-22.211 0-30.689l99.164-99.164-98.734-98.734c-8.468-8.468-8.468-22.211 0-30.689s22.211-8.468 30.689 0l98.734 98.734 98.734-98.734c8.468-8.468 22.211-8.468 30.689 0 8.468 8.468 8.468 22.211 0 30.689l-98.734 98.734z" />
<glyph unicode="&#xe918;" glyph-name="cierra_02" d="M358.287 302.592c4.004-4.004 9.236-6.001 14.479-6.001s10.476 1.997 14.479 6.001l118.641 118.641 118.641-118.641c4.004-4.004 9.236-6.001 14.479-6.001s10.476 1.997 14.479 6.001c7.997 7.997 7.997 20.961 0 28.959l-118.63 118.651 118.641 118.641c7.997 7.997 7.997 20.961 0 28.959s-20.961 7.997-28.959 0l-118.641-118.641-118.641 118.641c-7.997 7.997-20.961 7.997-28.959 0s-7.997-20.961 0-28.959l118.641-118.641-118.651-118.641c-7.997-7.997-7.997-20.972 0-28.969zM505.897 122.522c87.521 0 169.81 34.089 231.69 95.98 61.901 61.891 95.99 144.179 95.99 231.7s-34.089 169.81-95.99 231.69c-61.88 61.891-144.169 95.99-231.69 95.99s-169.81-34.089-231.69-95.98c-61.901-61.891-95.99-144.179-95.99-231.7s34.089-169.81 95.99-231.7c61.88-61.891 144.169-95.98 231.69-95.98zM303.165 652.933c54.149 54.159 126.147 83.988 202.732 83.988s148.582-29.829 202.732-83.988c54.159-54.149 83.988-126.147 83.988-202.732s-29.829-148.582-83.988-202.732c-54.149-54.159-126.147-83.988-202.732-83.988s-148.582 29.829-202.732 83.988c-54.159 54.149-83.988 126.147-83.988 202.732 0 76.575 29.829 148.572 83.988 202.732z" />
<glyph unicode="&#xe919;" glyph-name="cloud_baja" d="M509.153 526.95c-11.305 0-20.48-9.175-20.48-20.48v-278.231l-46.961 46.961c-7.997 7.997-20.961 7.997-28.959 0s-7.997-20.961 0-28.959l81.92-81.92c4.004-4.004 9.236-6.001 14.479-6.001s10.476 1.997 14.479 6.001l81.92 81.92c7.997 7.997 7.997 20.961 0 28.959s-20.961 7.997-28.959 0l-46.961-46.961v278.231c0 11.305-9.175 20.48-20.48 20.48zM754.156 525.046c-9.482 115.558-106.568 206.705-224.522 206.705-104.694 0-195-67.942-221.092-163.84h-4.188c-67.758 0-122.88-55.122-122.88-122.88s55.122-122.88 122.88-122.88h122.88c11.305 0 20.48 9.175 20.48 20.48s-9.175 20.48-20.48 20.48h-122.88c-45.169 0-81.92 36.751-81.92 81.92s36.751 81.92 81.92 81.92h20.48c9.851 0 18.309 7.014 20.132 16.691 16.015 85.258 93.686 147.149 184.668 147.149 101.632 0 184.32-82.688 184.32-184.32 0-11.305 9.175-20.48 20.48-20.48 33.884 0 61.44-27.556 61.44-61.44s-27.556-61.44-61.44-61.44h-143.36c-11.305 0-20.48-9.175-20.48-20.48s9.175-20.48 20.48-20.48h143.36c56.463 0 102.4 45.937 102.4 102.4 0 49.715-35.625 91.269-82.678 100.495z" />
<glyph unicode="&#xe91a;" glyph-name="cloud_cierra" d="M764.396 443.126c-9.482 115.558-106.557 206.705-224.522 206.705-104.694 0-195-67.942-221.092-163.84h-4.188c-67.758 0-122.88-55.122-122.88-122.88s55.122-122.88 122.88-122.88h430.080c56.463 0 102.4 45.937 102.4 102.4 0 49.715-35.615 91.269-82.678 100.495zM744.673 281.19h-430.080c-45.169 0-81.92 36.751-81.92 81.92s36.751 81.92 81.92 81.92h20.48c9.851 0 18.309 7.014 20.132 16.691 16.015 85.258 93.686 147.149 184.668 147.149 101.632 0 184.32-82.688 184.32-184.32 0-11.305 9.175-20.48 20.48-20.48 33.884 0 61.44-27.556 61.44-61.44s-27.556-61.44-61.44-61.44zM595.313 479.99c-7.997 7.997-20.961 7.997-28.959 0l-36.721-36.721-36.721 36.721c-7.997 7.997-20.961 7.997-28.959 0s-7.997-20.961 0-28.959l36.721-36.721-36.721-36.721c-7.997-7.997-7.997-20.961 0-28.959 4.004-4.004 9.236-6.001 14.479-6.001s10.476 1.997 14.479 6.001l36.721 36.721 36.721-36.721c4.004-4.004 9.236-6.001 14.479-6.001s10.476 1.997 14.479 6.001c7.997 7.997 7.997 20.961 0 28.959l-36.721 36.721 36.721 36.721c7.997 7.987 7.997 20.961 0 28.959z" />
<glyph unicode="&#xe91b;" glyph-name="cloud_ok" d="M314.593 240.23h430.080c56.463 0 102.4 45.937 102.4 102.4 0 49.725-35.625 91.279-82.678 100.495-9.482 115.558-106.557 206.705-224.522 206.705-104.694 0-195-67.942-221.092-163.84h-4.188c-67.758 0-122.88-55.122-122.88-122.88s55.122-122.88 122.88-122.88zM314.593 445.030h20.48c9.851 0 18.309 7.014 20.132 16.691 16.015 85.258 93.686 147.149 184.668 147.149 101.632 0 184.32-82.688 184.32-184.32 0-11.305 9.175-20.48 20.48-20.48 33.884 0 61.44-27.556 61.44-61.44s-27.556-61.44-61.44-61.44h-430.080c-45.169 0-81.92 36.751-81.92 81.92s36.751 81.92 81.92 81.92zM484.434 348.631c4.004-4.004 9.236-6.001 14.479-6.001s10.476 1.997 14.479 6.001l102.4 102.4c7.997 7.997 7.997 20.961 0 28.959s-20.961 7.997-28.959 0l-87.921-87.91-46.961 46.95c-7.997 7.997-20.961 7.997-28.959 0s-7.997-20.961 0-28.959l61.44-61.44z" />
<glyph unicode="&#xe91c;" glyph-name="cloud_sube" d="M498.913 137.83c11.305 0 20.48 9.175 20.48 20.48v278.231l46.961-46.95c4.004-4.004 9.236-6.001 14.479-6.001s10.476 1.997 14.479 6.001c7.997 7.997 7.997 20.961 0 28.959l-81.92 81.92c-7.997 7.997-20.961 7.997-28.959 0l-81.92-81.92c-7.997-7.997-7.997-20.961 0-28.959s20.961-7.997 28.959 0l46.961 46.95v-278.231c0-11.315 9.165-20.48 20.48-20.48zM743.916 504.566c-9.482 115.558-106.568 206.705-224.522 206.705-104.694 0-195-67.942-221.092-163.84h-4.188c-67.758 0-122.88-55.122-122.88-122.88s55.122-122.88 122.88-122.88h122.88c11.305 0 20.48 9.175 20.48 20.48s-9.175 20.48-20.48 20.48h-122.88c-45.169 0-81.92 36.751-81.92 81.92s36.751 81.92 81.92 81.92h20.48c9.851 0 18.309 7.014 20.132 16.691 16.015 85.258 93.686 147.149 184.668 147.149 101.632 0 184.32-82.688 184.32-184.32 0-11.305 9.165-20.48 20.48-20.48 33.884 0 61.44-27.556 61.44-61.44s-27.556-61.44-61.44-61.44h-143.36c-11.315 0-20.48-9.175-20.48-20.48s9.165-20.48 20.48-20.48h143.36c56.463 0 102.4 45.937 102.4 102.4 0 49.715-35.625 91.269-82.678 100.495z" />
<glyph unicode="&#xe91d;" glyph-name="compartir" d="M314.429 224.276c39.557 0 74.721 18.872 97.208 48.005l170.209-62.71c7.178-49.5 49.766-87.685 101.222-87.685 56.463 0 102.4 45.937 102.4 102.4s-45.937 102.4-102.4 102.4c-46.776 0-86.241-31.57-98.437-74.486l-153.549 56.566c3.994 12.093 6.226 24.986 6.226 38.4 0 25.825-8.049 49.787-21.709 69.581l189.174 113.49c25.743-24.545 60.488-39.721 98.785-39.721 79.053 0 143.36 64.307 143.36 143.36s-64.307 143.36-143.36 143.36-143.36-64.307-143.36-143.36c0-25.907 7.014-50.166 19.077-71.158l-193.208-115.927c-20.204 14.561-44.902 23.245-71.639 23.245-67.758 0-122.88-55.122-122.88-122.88s55.122-122.88 122.88-122.88zM683.069 285.716c33.884 0 61.44-27.556 61.44-61.44s-27.556-61.44-61.44-61.44-61.44 27.556-61.44 61.44c0 33.874 27.566 61.44 61.44 61.44zM703.549 736.276c56.463 0 102.4-45.937 102.4-102.4s-45.937-102.4-102.4-102.4c-56.463 0-102.4 45.937-102.4 102.4s45.937 102.4 102.4 102.4zM314.429 429.076c45.169 0 81.92-36.751 81.92-81.92s-36.751-81.92-81.92-81.92-81.92 36.751-81.92 81.92 36.751 81.92 81.92 81.92z" />
<glyph unicode="&#xe91e;" glyph-name="corazon" d="M678.625 746.516c-71.24 0-133.161-36.116-163.84-88.822-30.659 52.695-92.6 88.822-163.84 88.822-107.561 0-163.84-92.723-163.84-184.32 0-213.944 304.2-398.909 317.143-406.682 3.256-1.935 6.902-2.918 10.537-2.918 3.656 0 7.301 0.983 10.537 2.918 12.964 7.772 317.143 192.737 317.143 406.682 0 91.597-56.279 184.32-163.84 184.32zM514.785 197.274c-52.941 34.161-286.72 194.683-286.72 364.923 0 69.038 38.461 143.36 122.88 143.36 68.956 0 143.36-46.981 143.36-122.88 0-11.305 9.175-20.48 20.48-20.48 11.315 0 20.48 9.175 20.48 20.48 0 75.899 74.424 122.88 143.36 122.88 84.439 0 122.88-74.322 122.88-143.36 0-170.045-233.82-330.742-286.72-364.923z" />
<glyph unicode="&#xe91f;" glyph-name="cronometro" d="M217.149 426.793c0-79.319 30.894-153.887 86.979-209.971 56.084-56.105 130.652-86.989 209.981-86.989 79.319 0 153.897 30.894 209.981 86.989 56.095 56.084 86.989 130.652 86.989 209.971s-30.894 153.887-86.979 209.971c-51.231 51.241-117.903 81.367-189.501 86.211v21.258h40.96c11.305 0 20.48 9.175 20.48 20.48s-9.175 20.48-20.48 20.48h-122.88c-11.315 0-20.48-9.175-20.48-20.48s9.165-20.48 20.48-20.48h40.96v-21.258c-71.608-4.844-138.271-34.97-189.491-86.211-56.105-56.074-86.999-130.652-86.999-209.971zM769.239 447.273h-19.61c-11.315 0-20.48-9.175-20.48-20.48s9.165-20.48 20.48-20.48h19.61c-4.25-53.965-25.221-104.509-60.426-145.644-0.543 0.696-1.044 1.423-1.679 2.058l-28.969 28.969c-7.997 7.997-20.961 7.997-28.969 0-7.997-7.987-7.997-20.961 0-28.959l28.969-28.969c0.645-0.635 1.362-1.147 2.058-1.679-41.124-35.205-91.668-56.177-145.633-60.416v29.839c0 11.305-9.175 20.48-20.48 20.48-11.315 0-20.48-9.175-20.48-20.48v-29.839c-53.965 4.239-104.509 25.211-145.633 60.416 0.696 0.543 1.423 1.044 2.058 1.679l28.969 28.969c7.997 7.997 7.997 20.961 0 28.959-7.987 7.997-20.972 7.997-28.959 0l-28.969-28.969c-0.635-0.635-1.147-1.362-1.679-2.058-35.205 41.134-56.177 91.679-60.426 145.644h19.61c11.305 0 20.48 9.175 20.48 20.48s-9.175 20.48-20.48 20.48h-19.61c4.25 53.965 25.221 104.509 60.426 145.633 0.543-0.696 1.044-1.423 1.69-2.058l28.969-28.959c4.004-4.004 9.236-6.001 14.479-6.001s10.486 1.997 14.49 6.001c7.997 7.997 7.997 20.972 0 28.959l-28.969 28.959c-0.645 0.635-1.362 1.147-2.068 1.69 41.124 35.205 91.679 56.177 145.644 60.416v-19.599c0-11.305 9.165-20.48 20.48-20.48 11.305 0 20.48 9.175 20.48 20.48v19.599c53.955-4.239 104.509-25.211 145.644-60.416-0.696-0.543-1.423-1.055-2.068-1.69l-28.959-28.959c-7.997-7.997-7.997-20.961 0-28.959 3.994-4.004 9.236-6.001 14.479-6.001s10.486 1.997 14.479 6.001l28.959 28.959c0.645 0.635 1.147 1.362 1.69 2.068 35.185-41.134 56.156-91.679 60.406-145.644zM534.589 462.060v87.624c0 11.305-9.175 20.48-20.48 20.48-11.315 0-20.48-9.175-20.48-20.48v-87.624c-12.186-7.096-20.48-20.163-20.48-35.256 0-22.589 18.371-40.96 40.96-40.96s40.96 18.371 40.96 40.96c0 15.094-8.294 28.15-20.48 35.256z" />
<glyph unicode="&#xe920;" glyph-name="datos_01" d="M845.148 165.919h-20.48v286.72c0 22.589-18.371 40.96-40.96 40.96h-61.44c-22.589 0-40.96-18.371-40.96-40.96v-286.72h-20.48v491.52c0 22.589-18.371 40.96-40.96 40.96h-61.44c-22.589 0-40.96-18.371-40.96-40.96v-491.52h-20.48v184.32c0 22.589-18.371 40.96-40.96 40.96h-61.44c-22.589 0-40.96-18.371-40.96-40.96v-184.32h-102.4v81.92h40.96c11.305 0 20.48 9.175 20.48 20.48s-9.175 20.48-20.48 20.48h-40.96v61.44c11.305 0 20.48 9.175 20.48 20.48s-9.175 20.48-20.48 20.48v61.44h40.96c11.305 0 20.48 9.175 20.48 20.48s-9.175 20.48-20.48 20.48h-40.96v61.44c11.305 0 20.48 9.175 20.48 20.48s-9.175 20.48-20.48 20.48v61.44h40.96c11.305 0 20.48 9.175 20.48 20.48s-9.175 20.48-20.48 20.48h-40.96v61.44c0 11.305-9.175 20.48-20.48 20.48-11.315 0-20.48-9.175-20.48-20.48v-593.92c0-22.589 18.371-40.96 40.96-40.96h593.92c11.305 0 20.48 9.175 20.48 20.48s-9.165 20.48-20.48 20.48zM722.268 452.639h61.44v-286.72h-61.44v286.72zM558.428 657.439h61.44v-491.52h-61.44v491.52zM394.588 350.239h61.44v-184.32h-61.44v184.32z" />
<glyph unicode="&#xe921;" glyph-name="datos_02" d="M896.358 165.919h-593.92v81.92h40.96c11.305 0 20.48 9.175 20.48 20.48s-9.175 20.48-20.48 20.48h-40.96v61.44c11.305 0 20.48 9.175 20.48 20.48s-9.175 20.48-20.48 20.48v61.44h40.96c11.305 0 20.48 9.175 20.48 20.48s-9.175 20.48-20.48 20.48h-40.96v61.44c11.305 0 20.48 9.175 20.48 20.48s-9.175 20.48-20.48 20.48v61.44h40.96c11.305 0 20.48 9.175 20.48 20.48s-9.175 20.48-20.48 20.48h-40.96v61.44c0 11.305-9.175 20.48-20.48 20.48s-20.48-9.175-20.48-20.48v-593.92c0-22.589 18.371-40.96 40.96-40.96h593.92c11.305 0 20.48 9.175 20.48 20.48s-9.175 20.48-20.48 20.48zM834.918 432.159c11.305 0 20.48 9.175 20.48 20.48v102.4c0 1.341-0.143 2.693-0.399 4.014-0.133 0.614-0.358 1.178-0.532 1.772-0.205 0.686-0.358 1.382-0.635 2.048-0.297 0.696-0.696 1.341-1.065 1.997-0.276 0.512-0.502 1.044-0.819 1.516-1.505 2.253-3.441 4.178-5.693 5.693-0.481 0.317-1.014 0.543-1.516 0.819-0.655 0.358-1.3 0.758-1.997 1.065-0.666 0.266-1.362 0.43-2.048 0.635-0.594 0.174-1.157 0.399-1.772 0.532-1.321 0.256-2.673 0.399-4.014 0.399h-102.4c-11.305 0-20.48-9.175-20.48-20.48s9.175-20.48 20.48-20.48h52.961l-196.311-196.332-46.961 46.961c-7.997 7.997-20.961 7.997-28.959 0l-102.4-102.4c-7.997-7.997-7.997-20.961 0-28.959 4.004-4.004 9.236-6.001 14.479-6.001s10.476 1.997 14.479 6.001l87.921 87.921 46.961-46.961c7.997-7.997 20.961-7.997 28.959 0l210.801 210.801v-52.961c0-11.315 9.165-20.48 20.48-20.48z" />
<glyph unicode="&#xe922;" glyph-name="datos_03" d="M896.358 165.919h-593.92v81.92h40.96c11.305 0 20.48 9.175 20.48 20.48s-9.175 20.48-20.48 20.48h-40.96v61.44c11.305 0 20.48 9.175 20.48 20.48s-9.175 20.48-20.48 20.48v61.44h40.96c11.305 0 20.48 9.175 20.48 20.48s-9.175 20.48-20.48 20.48h-40.96v61.44c11.305 0 20.48 9.175 20.48 20.48s-9.175 20.48-20.48 20.48v61.44h40.96c11.305 0 20.48 9.175 20.48 20.48s-9.175 20.48-20.48 20.48h-40.96v61.44c0 11.305-9.175 20.48-20.48 20.48s-20.48-9.175-20.48-20.48v-593.92c0-22.589 18.371-40.96 40.96-40.96h593.92c11.305 0 20.48 9.175 20.48 20.48s-9.175 20.48-20.48 20.48zM583.158 589.998l-102.4 102.4c-7.997 7.997-20.961 7.997-28.959 0s-7.997-20.961 0-28.959l87.921-87.921-46.961-46.961c-7.997-7.997-7.997-20.961 0-28.959l210.801-210.801h-52.961c-11.315 0-20.48-9.175-20.48-20.48s9.165-20.48 20.48-20.48h102.4c1.341 0 2.693 0.143 4.014 0.399 0.614 0.133 1.178 0.358 1.772 0.532 0.686 0.205 1.382 0.358 2.048 0.635 0.696 0.297 1.341 0.696 1.997 1.065 0.512 0.276 1.044 0.502 1.516 0.819 2.253 1.505 4.178 3.441 5.693 5.693 0.317 0.481 0.543 1.014 0.819 1.516 0.358 0.655 0.758 1.3 1.065 1.997 0.266 0.666 0.43 1.362 0.635 2.048 0.174 0.594 0.399 1.157 0.532 1.772 0.256 1.331 0.399 2.673 0.399 4.014v102.4c0 11.305-9.175 20.48-20.48 20.48s-20.48-9.175-20.48-20.48v-52.961l-196.332 196.311 46.961 46.961c7.997 7.997 7.997 20.961 0 28.959z" />
<glyph unicode="&#xe923;" glyph-name="derecha" d="M482.755 635.761c-8.223 7.762-21.176 7.393-28.948-0.829-7.762-8.223-7.393-21.187 0.829-28.948l168.55-159.191-168.55-159.191c-8.223-7.762-8.591-20.726-0.829-28.948 4.035-4.27 9.452-6.42 14.899-6.42 5.048 0 10.097 1.853 14.060 5.591l184.32 174.080c4.096 3.871 6.42 9.257 6.42 14.889s-2.324 11.018-6.42 14.889l-184.33 174.080zM519.895 774.472c-87.521 0-169.81-34.089-231.69-95.98-61.901-61.891-96-144.179-96-231.7s34.099-169.81 95.99-231.7c61.891-61.891 144.169-95.98 231.7-95.98 87.521 0 169.8 34.089 231.69 95.98 61.901 61.891 95.99 144.179 95.99 231.7s-34.099 169.81-95.99 231.69c-61.891 61.891-144.169 95.99-231.69 95.99zM722.616 244.050c-54.149-54.159-126.147-83.988-202.721-83.988-76.585 0-148.572 29.829-202.732 83.988-54.17 54.149-83.999 126.147-83.999 202.732 0 76.575 29.829 148.582 83.999 202.732 54.149 54.159 126.147 83.988 202.721 83.988s148.572-29.829 202.732-83.988c54.159-54.149 83.999-126.147 83.999-202.732 0-76.575-29.829-148.572-83.999-202.732z" />
<glyph unicode="&#xe924;" glyph-name="desktop" d="M825.723 733.553h-614.4c-11.305 0-20.48-9.175-20.48-20.48v-409.6c0-11.305 9.175-20.48 20.48-20.48h286.72v-81.92h-81.92c-11.305 0-20.48-9.175-20.48-20.48s9.175-20.48 20.48-20.48h204.8c11.305 0 20.48 9.175 20.48 20.48s-9.175 20.48-20.48 20.48h-81.92v81.92h286.72c11.305 0 20.48 9.175 20.48 20.48v409.6c0 11.305-9.165 20.48-20.48 20.48zM805.243 323.953h-573.44v368.64h573.44v-368.64z" />
<glyph unicode="&#xe925;" glyph-name="escritorio" d="M823.296 718.694h-614.4c-11.305 0-20.48-9.175-20.48-20.48v-512c0-11.305 9.175-20.48 20.48-20.48h614.4c11.315 0 20.48 9.175 20.48 20.48v512c0 11.315-9.155 20.48-20.48 20.48zM802.816 677.734v-81.92h-573.44v81.92h573.44zM229.376 206.694v348.16h573.44v-348.16h-573.44zM290.816 616.294c5.315 0 10.66 2.15 14.438 6.042 3.901 3.789 6.042 9.124 6.042 14.438s-2.14 10.65-6.042 14.541c-7.578 7.578-21.299 7.578-28.979-0.102-3.779-3.789-5.939-9.011-5.939-14.438 0-5.417 2.161-10.65 6.042-14.541 3.799-3.789 9.124-5.939 14.438-5.939zM352.256 616.294c5.315 0 10.66 2.15 14.541 6.042 3.799 3.789 5.939 9.124 5.939 14.438s-2.14 10.65-6.042 14.541c-7.578 7.578-21.299 7.578-28.979-0.102-3.779-3.789-5.939-9.124-5.939-14.438 0-5.325 2.161-10.65 6.042-14.541 3.799-3.789 9.124-5.939 14.438-5.939zM413.696 616.294c5.437 0 10.66 2.15 14.438 6.042 3.901 3.789 6.042 9.021 6.042 14.438 0 5.315-2.14 10.65-6.042 14.541-7.578 7.578-21.299 7.578-28.979-0.102-3.779-3.789-5.939-9.124-5.939-14.438 0-5.417 2.161-10.65 6.042-14.438 3.799-3.891 9.124-6.042 14.438-6.042zM505.856 513.894h-215.040c-11.305 0-20.48-9.175-20.48-20.48s9.175-20.48 20.48-20.48h215.040c11.315 0 20.48 9.175 20.48 20.48s-9.155 20.48-20.48 20.48zM505.856 431.974h-215.040c-11.305 0-20.48-9.175-20.48-20.48s9.175-20.48 20.48-20.48h215.040c11.315 0 20.48 9.175 20.48 20.48s-9.155 20.48-20.48 20.48zM505.856 350.054h-215.040c-11.305 0-20.48-9.175-20.48-20.48s9.175-20.48 20.48-20.48h215.040c11.315 0 20.48 9.175 20.48 20.48s-9.155 20.48-20.48 20.48zM741.376 513.894h-153.6c-11.305 0-20.48-9.175-20.48-20.48v-163.84c0-11.305 9.175-20.48 20.48-20.48h153.6c11.315 0 20.48 9.175 20.48 20.48v163.84c0 11.315-9.155 20.48-20.48 20.48zM720.896 350.054h-112.64v122.88h112.64v-122.88z" />
<glyph unicode="&#xe926;" glyph-name="escritorio_02" d="M208.896 165.734h614.4c11.315 0 20.48 9.175 20.48 20.48v512c0 11.305-9.165 20.48-20.48 20.48h-614.4c-11.305 0-20.48-9.175-20.48-20.48v-512c0-11.305 9.185-20.48 20.48-20.48zM229.376 206.694v348.16h573.44v-348.16h-573.44zM802.816 677.734v-81.92h-573.44v81.92h573.44zM290.816 616.294c5.315 0 10.66 2.15 14.541 6.042 3.799 3.789 5.939 9.021 5.939 14.438 0 5.315-2.14 10.65-6.042 14.438-7.578 7.68-21.299 7.68-28.877 0-3.881-3.789-6.042-9.011-6.042-14.438 0-5.417 2.161-10.65 6.042-14.541 3.799-3.789 9.124-5.939 14.438-5.939zM352.256 616.294c5.315 0 10.66 2.15 14.438 6.042 3.901 3.789 6.042 9.021 6.042 14.438 0 5.427-2.14 10.65-6.042 14.438-7.578 7.68-21.299 7.68-28.877 0-3.881-3.789-6.042-9.011-6.042-14.438 0-5.417 2.161-10.65 6.042-14.541 3.799-3.789 9.021-5.939 14.438-5.939zM413.696 616.294c5.437 0 10.66 2.15 14.438 5.939 3.901 3.891 6.042 9.124 6.042 14.541 0 5.427-2.14 10.65-6.042 14.541-7.578 7.578-21.299 7.578-28.877-0.102-3.881-3.789-6.042-9.124-6.042-14.438 0-5.417 2.161-10.65 6.042-14.541 3.799-3.789 9.021-5.939 14.438-5.939zM741.376 513.894h-450.56c-11.305 0-20.48-9.175-20.48-20.48s9.175-20.48 20.48-20.48h450.56c11.315 0 20.48 9.175 20.48 20.48s-9.155 20.48-20.48 20.48zM741.376 431.974h-450.56c-11.305 0-20.48-9.175-20.48-20.48s9.175-20.48 20.48-20.48h450.56c11.315 0 20.48 9.175 20.48 20.48s-9.155 20.48-20.48 20.48zM741.376 350.054h-450.56c-11.305 0-20.48-9.175-20.48-20.48s9.175-20.48 20.48-20.48h450.56c11.315 0 20.48 9.175 20.48 20.48s-9.155 20.48-20.48 20.48z" />
<glyph unicode="&#xe927;" glyph-name="etiqueta" d="M413.891 120.535c3.994-4.004 9.236-6.001 14.479-6.001s10.486 1.997 14.479 6.001l368.64 368.64c3.84 3.84 6.001 9.052 6.001 14.479v245.76c0 11.305-9.175 20.48-20.48 20.48h-245.76c-5.427 0-10.639-2.161-14.479-6.001l-368.64-368.64c-7.997-7.997-7.997-20.961 0-28.959l245.76-245.76zM559.739 728.934h216.791v-216.801l-348.16-348.16-216.791 216.801 348.16 348.16zM643.41 513.894c45.169 0 81.92 36.751 81.92 81.92s-36.751 81.92-81.92 81.92c-45.169 0-81.92-36.751-81.92-81.92s36.751-81.92 81.92-81.92zM643.41 636.774c22.589 0 40.96-18.371 40.96-40.96s-18.371-40.96-40.96-40.96c-22.589 0-40.96 18.371-40.96 40.96s18.371 40.96 40.96 40.96z" />
<glyph unicode="&#xe928;" glyph-name="expande" d="M206.838 530.432c11.305 0 20.48 9.175 20.48 20.48v114.401l180.081-180.081c4.004-4.004 9.247-6.001 14.49-6.001s10.486 1.997 14.479 6.001c7.997 7.997 7.997 20.961 0 28.959l-180.081 180.081h114.401c11.305 0 20.48 9.165 20.48 20.48 0 11.305-9.175 20.48-20.48 20.48h-163.84c-11.305 0-20.48-9.175-20.48-20.48v-163.84c-0.010-11.315 9.165-20.48 20.47-20.48zM206.848 161.792h163.84c11.305 0 20.48 9.175 20.48 20.48s-9.175 20.48-20.48 20.48h-114.401l180.081 180.081c7.997 7.997 7.997 20.961 0 28.959-7.987 7.997-20.972 7.997-28.969 0l-180.081-180.081v114.401c0 11.305-9.175 20.48-20.48 20.48s-20.48-9.175-20.48-20.48v-163.84c0-11.315 9.175-20.48 20.49-20.48zM821.238 366.592c-11.305 0-20.48-9.175-20.48-20.48v-114.401l-180.081 180.081c-7.987 7.997-20.961 7.997-28.959 0s-7.997-20.961 0-28.959l180.091-180.081h-114.401c-11.305 0-20.48-9.175-20.48-20.48s9.175-20.48 20.48-20.48h163.84c11.305 0 20.48 9.175 20.48 20.48v163.84c-0.010 11.305-9.175 20.48-20.49 20.48zM821.248 735.232h-163.84c-11.305 0-20.48-9.175-20.48-20.48 0-11.315 9.175-20.48 20.48-20.48h114.401l-180.081-180.081c-7.997-7.997-7.997-20.961 0-28.959 3.994-4.004 9.236-6.001 14.479-6.001s10.486 1.997 14.479 6.001l180.081 180.081v-114.401c0-11.305 9.175-20.48 20.48-20.48s20.48 9.175 20.48 20.48v163.84c-0.010 11.305-9.175 20.48-20.48 20.48z" />
<glyph unicode="&#xe929;" glyph-name="favorito" d="M390.513 774.472c-11.305 0-20.48-9.175-20.48-20.48v-614.4c0-8.284 4.987-15.749 12.646-18.924 7.629-3.164 16.456-1.413 22.313 4.444l128.881 128.881 128.881-128.881c3.912-3.922 9.155-6.001 14.49-6.001 2.632 0 5.304 0.512 7.834 1.556 7.66 3.174 12.646 10.639 12.646 18.924v614.4c0 11.305-9.175 20.48-20.48 20.48h-286.73zM656.753 189.030l-108.401 108.401c-3.994 4.004-9.236 6.001-14.479 6.001s-10.486-1.997-14.479-6.001l-108.401-108.401v544.481h245.76v-544.481z" />
<glyph unicode="&#xe92a;" glyph-name="foto_01" d="M213.33 212.992h614.4c11.305 0 20.48 9.175 20.48 20.48v430.080c0 11.305-9.175 20.48-20.48 20.48h-614.4c-11.315 0-20.48-9.175-20.48-20.48v-430.080c0-11.315 9.165-20.48 20.48-20.48zM233.81 253.952v31.898l204.124 185.569 109.076-109.066c4.198-4.198 9.974-6.318 15.933-5.949 5.929 0.42 11.366 3.389 14.93 8.141l48.005 64.010 181.371-163.236v-11.356h-573.44zM807.25 643.072v-322.662l-170.619 153.559c-4.27 3.84-9.943 5.755-15.688 5.161-5.724-0.553-10.947-3.492-14.397-8.090l-47.268-63.027-106.189 106.179c-7.731 7.731-20.163 8.028-28.252 0.666l-191.027-173.66v301.875h573.44zM715.090 479.232c39.526 0 71.68 32.164 71.68 71.68s-32.154 71.68-71.68 71.68c-39.526 0-71.68-32.164-71.68-71.68s32.154-71.68 71.68-71.68zM715.090 581.632c16.937 0 30.72-13.783 30.72-30.72s-13.783-30.72-30.72-30.72c-16.937 0-30.72 13.783-30.72 30.72s13.773 30.72 30.72 30.72z" />
<glyph unicode="&#xe92b;" glyph-name="foto_02" d="M827.73 714.752h-532.48c-11.315 0-20.48-9.175-20.48-20.48v-61.44h-61.44c-11.315 0-20.48-9.175-20.48-20.48v-409.6c0-11.305 9.165-20.48 20.48-20.48h532.48c11.305 0 20.48 9.175 20.48 20.48v61.44h61.44c11.305 0 20.48 9.175 20.48 20.48v409.6c0 11.305-9.175 20.48-20.48 20.48zM725.33 591.872v-324.106l-109.548 93.901c-6.717 5.734-16.333 6.543-23.869 2.007l-87.716-52.634-132.096 150.958c-3.727 4.26-9.062 6.789-14.725 6.984-5.642 0.154-11.151-1.976-15.155-5.99l-108.411-108.401v237.281h491.52zM233.81 296.673l121.876 121.876 128.952-147.374c6.543-7.465 17.459-9.185 25.948-4.065l89.743 53.842 114.012-97.72h-480.532v73.441zM807.25 305.152h-40.96v307.2c0 11.305-9.175 20.48-20.48 20.48h-430.080v40.96h491.52v-368.64zM612.69 407.552c39.516 0 71.68 32.164 71.68 71.68s-32.164 71.68-71.68 71.68c-39.516 0-71.68-32.164-71.68-71.68s32.154-71.68 71.68-71.68zM612.69 509.952c16.937 0 30.72-13.783 30.72-30.72s-13.783-30.72-30.72-30.72c-16.937 0-30.72 13.783-30.72 30.72s13.773 30.72 30.72 30.72z" />
<glyph unicode="&#xe92c;" glyph-name="imprimir" d="M208.804 227.359h122.88v-81.92c0-11.305 9.175-20.48 20.48-20.48h327.68c11.315 0 20.48 9.175 20.48 20.48v81.92h122.88c11.315 0 20.48 9.175 20.48 20.48v327.68c0 11.305-9.165 20.48-20.48 20.48h-122.88v163.84c0 11.305-9.165 20.48-20.48 20.48h-327.68c-11.305 0-20.48-9.175-20.48-20.48v-163.84h-122.88c-11.305 0-20.48-9.175-20.48-20.48v-327.68c0-11.315 9.175-20.48 20.48-20.48zM659.364 165.919h-286.72v204.8h286.72v-204.8zM372.644 739.359h286.72v-143.36h-286.72v143.36zM229.284 555.039h573.44v-286.72h-102.4v122.88c0 11.305-9.165 20.48-20.48 20.48h-327.68c-11.305 0-20.48-9.175-20.48-20.48v-122.88h-102.4v286.72zM305.162 518.277c-7.578 7.68-21.299 7.68-28.877 0-3.881-3.789-6.042-9.011-6.042-14.438 0-5.325 2.161-10.65 6.042-14.541 3.799-3.789 9.021-5.939 14.438-5.939 5.437 0 10.66 2.15 14.541 6.042 3.799 3.789 5.939 9.124 5.939 14.438 0 5.427-2.14 10.65-6.042 14.438zM352.164 483.359c5.437 0 10.66 2.15 14.438 6.042 3.901 3.789 6.042 9.124 6.042 14.438s-2.14 10.65-6.042 14.541c-7.578 7.578-21.299 7.578-28.877-0.102-3.881-3.789-6.042-9.011-6.042-14.438 0-5.325 2.161-10.65 6.042-14.541 3.799-3.789 9.021-5.939 14.438-5.939zM618.404 329.759h-204.8c-11.305 0-20.48-9.175-20.48-20.48s9.175-20.48 20.48-20.48h204.8c11.315 0 20.48 9.175 20.48 20.48s-9.165 20.48-20.48 20.48zM618.404 247.839h-204.8c-11.305 0-20.48-9.175-20.48-20.48s9.175-20.48 20.48-20.48h204.8c11.315 0 20.48 9.175 20.48 20.48s-9.165 20.48-20.48 20.48z" />
<glyph unicode="&#xe92d;" glyph-name="info" d="M508.867 777.882c-87.532 0-169.82-34.089-231.7-95.98-61.901-61.891-95.99-144.179-95.99-231.7s34.089-169.81 95.99-231.7c61.88-61.891 144.169-95.98 231.7-95.98s169.82 34.089 231.7 95.98c61.901 61.891 95.99 144.179 95.99 231.7s-34.089 169.81-95.99 231.69c-61.88 61.901-144.169 95.99-231.7 95.99zM711.608 247.46c-54.149-54.159-126.147-83.988-202.742-83.988s-148.593 29.829-202.742 83.988c-54.159 54.149-83.988 126.147-83.988 202.732s29.829 148.582 83.988 202.732c54.149 54.159 126.147 83.988 202.742 83.988 76.585 0 148.593-29.829 202.742-83.988 54.159-54.149 83.988-126.147 83.988-202.732s-29.829-148.582-83.988-202.732zM488.387 511.631v-245.75c0-11.315 9.175-20.48 20.48-20.48 11.315 0 20.48 9.165 20.48 20.48v245.75c0 11.305-9.165 20.48-20.48 20.48-11.305 0-20.48-9.175-20.48-20.48zM488.387 614.369v-25.846c0-11.315 9.175-20.48 20.48-20.48 11.315 0 20.48 9.165 20.48 20.48v25.846c0 11.305-9.165 20.48-20.48 20.48-11.305 0-20.48-9.165-20.48-20.48z" />
<glyph unicode="&#xe92e;" glyph-name="izquierda" d="M585.984 634.931c-7.772 8.233-20.726 8.591-28.948 0.829l-184.32-174.080c-4.096-3.871-6.42-9.257-6.42-14.889s2.324-11.018 6.42-14.889l184.32-174.080c3.953-3.738 9.011-5.591 14.049-5.591 5.437 0 10.865 2.15 14.899 6.42 7.762 8.223 7.393 21.187-0.829 28.948l-168.55 159.191 168.55 159.191c8.233 7.762 8.602 20.726 0.829 28.948zM519.895 774.472c-87.521 0-169.81-34.089-231.69-95.98-61.901-61.891-96-144.179-96-231.7s34.099-169.81 95.99-231.7c61.891-61.891 144.169-95.98 231.7-95.98 87.521 0 169.8 34.089 231.69 95.98 61.901 61.891 95.99 144.179 95.99 231.7s-34.099 169.81-95.99 231.69c-61.88 61.891-144.159 95.99-231.69 95.99zM722.627 244.050c-54.149-54.159-126.147-83.988-202.721-83.988-76.585 0-148.572 29.829-202.732 83.988-54.17 54.149-83.999 126.147-83.999 202.732 0 76.575 29.829 148.582 83.999 202.732 54.149 54.159 126.147 83.988 202.721 83.988s148.572-29.829 202.732-83.988c54.17-54.149 83.999-126.147 83.999-202.732 0-76.575-29.829-148.572-83.999-202.732z" />
<glyph unicode="&#xe92f;" glyph-name="lapiz_editar" d="M223.918 136.335c4.823 0 9.912 1.178 15.145 3.502l146.903 65.29c12.636 5.622 29.563 17.244 39.352 27.034l401.111 401.111c7.721 7.721 11.981 18.012 11.981 28.969s-4.25 21.248-11.971 28.959l-73.441 73.452c-7.721 7.711-18.002 11.96-28.959 11.96s-21.238-4.25-28.959-11.971l-411.361-411.361c-9.912-9.902-21.402-27.146-26.747-40.11l-56.084-136.202c-6.083-14.787-1.782-24.781 1.321-29.42 4.772-7.127 12.687-11.213 21.709-11.213zM396.36 261.12c-0.010 0-0.010-0.010 0 0l-73.441 73.431 339.681 339.681 73.441-73.441-339.681-339.671zM724.029 735.672l73.441-73.441-32.481-32.481-73.441 73.441 32.481 32.481zM294.851 297.574c0.604 1.454 1.413 3.103 2.314 4.803l63.621-63.621-110.346-49.019 44.411 107.837z" />
<glyph unicode="&#xe930;" glyph-name="libreta" d="M345.149 129.751h389.12c22.589 0 40.96 18.371 40.96 40.96v573.44c0 22.589-18.371 40.96-40.96 40.96h-389.12c-22.589 0-40.96-18.371-40.96-40.96v-61.44h-20.48c-11.315 0-20.48-9.175-20.48-20.48s9.165-20.48 20.48-20.48h20.48v-40.96h-20.48c-11.315 0-20.48-9.175-20.48-20.48s9.165-20.48 20.48-20.48h20.48v-40.96h-20.48c-11.315 0-20.48-9.175-20.48-20.48s9.165-20.48 20.48-20.48h20.48v-40.96h-20.48c-11.315 0-20.48-9.175-20.48-20.48s9.165-20.48 20.48-20.48h20.48v-40.96h-20.48c-11.315 0-20.48-9.175-20.48-20.48s9.165-20.48 20.48-20.48h20.48v-40.96h-20.48c-11.315 0-20.48-9.175-20.48-20.48s9.165-20.48 20.48-20.48h20.48v-61.44c0-22.589 18.381-40.96 40.96-40.96zM734.269 170.711h-81.92v573.44h81.92v-573.44zM345.149 314.071h20.48c11.305 0 20.48 9.175 20.48 20.48s-9.175 20.48-20.48 20.48h-20.48v40.96h20.48c11.305 0 20.48 9.175 20.48 20.48s-9.175 20.48-20.48 20.48h-20.48v40.96h20.48c11.305 0 20.48 9.175 20.48 20.48s-9.175 20.48-20.48 20.48h-20.48v40.96h20.48c11.305 0 20.48 9.175 20.48 20.48s-9.175 20.48-20.48 20.48h-20.48v40.96h20.48c11.305 0 20.48 9.175 20.48 20.48s-9.175 20.48-20.48 20.48h-20.48v61.44h266.24v-573.44h-266.24v61.44h20.48c11.305 0 20.48 9.175 20.48 20.48s-9.175 20.48-20.48 20.48h-20.48v40.96z" />
<glyph unicode="&#xe931;" glyph-name="listado" d="M638.689 708.454l-25.057 50.115c-3.471 6.932-10.568 11.325-18.319 11.325h-163.84c-7.752 0-14.848-4.383-18.319-11.325l-25.057-50.115h-99.983c-11.315 0-20.48-9.175-20.48-20.48v-552.96c0-11.305 9.165-20.48 20.48-20.48h450.56c11.305 0 20.48 9.175 20.48 20.48v552.96c0 11.305-9.175 20.48-20.48 20.48h-99.983zM444.129 728.934h138.527l40.96-81.92h-220.447l40.96 81.92zM718.193 155.494h-409.6v512h59.023l-15.903-31.805c-3.164-6.349-2.836-13.885 0.901-19.927 3.727-6.042 10.322-9.718 17.418-9.718h286.72c0.072 0 0.133 0 0.205 0 11.305 0 20.48 9.175 20.48 20.48 0 4.28-1.311 8.253-3.553 11.53l-14.715 29.43h59.023v-511.99zM656.753 544.614h-184.32c-11.315 0-20.48-9.175-20.48-20.48s9.165-20.48 20.48-20.48h184.32c11.305 0 20.48 9.175 20.48 20.48s-9.165 20.48-20.48 20.48zM656.753 442.214h-184.32c-11.315 0-20.48-9.175-20.48-20.48s9.165-20.48 20.48-20.48h184.32c11.305 0 20.48 9.175 20.48 20.48s-9.165 20.48-20.48 20.48zM656.753 339.814h-184.32c-11.315 0-20.48-9.175-20.48-20.48s9.165-20.48 20.48-20.48h184.32c11.305 0 20.48 9.175 20.48 20.48s-9.165 20.48-20.48 20.48zM656.753 237.414h-184.32c-11.315 0-20.48-9.175-20.48-20.48s9.165-20.48 20.48-20.48h184.32c11.305 0 20.48 9.175 20.48 20.48s-9.165 20.48-20.48 20.48zM390.513 544.614h-20.48c-11.315 0-20.48-9.175-20.48-20.48s9.165-20.48 20.48-20.48h20.48c11.305 0 20.48 9.175 20.48 20.48s-9.165 20.48-20.48 20.48zM390.513 442.214h-20.48c-11.315 0-20.48-9.175-20.48-20.48s9.165-20.48 20.48-20.48h20.48c11.305 0 20.48 9.175 20.48 20.48s-9.165 20.48-20.48 20.48zM390.513 339.814h-20.48c-11.315 0-20.48-9.175-20.48-20.48s9.165-20.48 20.48-20.48h20.48c11.305 0 20.48 9.175 20.48 20.48s-9.165 20.48-20.48 20.48zM390.513 237.414h-20.48c-11.315 0-20.48-9.175-20.48-20.48s9.165-20.48 20.48-20.48h20.48c11.305 0 20.48 9.175 20.48 20.48s-9.165 20.48-20.48 20.48z" />
<glyph unicode="&#xe932;" glyph-name="listado_02" d="M198.656 544.614h61.44c11.315 0 20.48 9.175 20.48 20.48s-9.165 20.48-20.48 20.48h-61.44c-11.305 0-20.48-9.175-20.48-20.48s9.175-20.48 20.48-20.48zM813.056 585.574h-409.6c-11.305 0-20.48-9.175-20.48-20.48s9.175-20.48 20.48-20.48h409.6c11.315 0 20.48 9.175 20.48 20.48s-9.165 20.48-20.48 20.48zM198.656 421.734h61.44c11.315 0 20.48 9.175 20.48 20.48s-9.165 20.48-20.48 20.48h-61.44c-11.305 0-20.48-9.175-20.48-20.48s9.175-20.48 20.48-20.48zM813.056 462.694h-409.6c-11.305 0-20.48-9.175-20.48-20.48s9.175-20.48 20.48-20.48h409.6c11.315 0 20.48 9.175 20.48 20.48s-9.165 20.48-20.48 20.48zM198.656 298.854h61.44c11.315 0 20.48 9.175 20.48 20.48s-9.165 20.48-20.48 20.48h-61.44c-11.305 0-20.48-9.175-20.48-20.48s9.175-20.48 20.48-20.48zM813.056 339.814h-409.6c-11.305 0-20.48-9.175-20.48-20.48s9.175-20.48 20.48-20.48h409.6c11.315 0 20.48 9.175 20.48 20.48s-9.165 20.48-20.48 20.48z" />
<glyph unicode="&#xe933;" glyph-name="mail" d="M829.635 649.175h-614.4c-11.305 0-20.48-9.175-20.48-20.48v-368.64c0-11.305 9.175-20.48 20.48-20.48h614.4c11.305 0 20.48 9.175 20.48 20.48v368.64c0 11.305-9.175 20.48-20.48 20.48zM764.068 608.215l-241.633-149.985-241.633 149.985h483.267zM235.715 280.535v307.456l286.72-177.961 286.72 177.961v-307.456h-573.44z" />
<glyph unicode="&#xe934;" glyph-name="mail_abierto" d="M827.003 524.831l-89.528 35.809v190.935c0 11.305-9.175 20.48-20.48 20.48h-409.6c-11.305 0-20.48-9.175-20.48-20.48v-190.935l-89.528-35.809c-7.997-3.205-12.841-10.885-12.851-19.016h-0.020v-368.64c0-11.305 9.175-20.48 20.48-20.48h614.4c11.305 0 20.48 9.175 20.48 20.48v368.64h-0.020c-0.010 8.12-4.854 15.8-12.851 19.016zM777.964 500.316l-40.489-25.139v41.329l40.489-16.189zM696.515 731.095v-184.637c0-0.041 0-0.082 0-0.123v-96.573l-184.32-114.412-184.32 114.412v96.573c0 0.041 0 0.082 0 0.123v184.637h368.64zM286.915 475.177l-40.489 25.139 40.489 16.189v-41.329zM225.475 157.655v307.456l275.917-171.264c3.308-2.048 7.045-3.082 10.803-3.082s7.485 1.034 10.803 3.082l275.917 171.264v-307.456h-573.44zM553.155 649.175h81.92c11.305 0 20.48 9.175 20.48 20.48s-9.175 20.48-20.48 20.48h-81.92c-11.305 0-20.48-9.175-20.48-20.48s9.165-20.48 20.48-20.48zM389.315 567.255h245.76c11.305 0 20.48 9.175 20.48 20.48s-9.175 20.48-20.48 20.48h-245.76c-11.305 0-20.48-9.175-20.48-20.48s9.165-20.48 20.48-20.48zM389.315 485.335h245.76c11.305 0 20.48 9.175 20.48 20.48s-9.175 20.48-20.48 20.48h-245.76c-11.305 0-20.48-9.175-20.48-20.48s9.165-20.48 20.48-20.48z" />
<glyph unicode="&#xe935;" glyph-name="maletin" d="M814.387 604.631h-197.356c-6.779 29.88-30.065 81.92-109.844 81.92s-103.066-52.040-109.844-81.92h-197.356c-11.305 0-20.48-9.175-20.48-20.48v-368.64c0-11.305 9.175-20.48 20.48-20.48h614.4c11.315 0 20.48 9.175 20.48 20.48v368.64c0 11.305-9.155 20.48-20.48 20.48zM507.187 645.591c44.401 0 61.235-22.979 67.676-40.96h-135.373c6.441 17.879 23.357 40.96 67.697 40.96zM793.907 563.671v-81.92h-573.44v81.92h573.44zM476.467 440.791h61.44v-20.48h-61.44v20.48zM220.467 235.991v204.8h215.040v-40.96c0-11.305 9.175-20.48 20.48-20.48h102.4c11.315 0 20.48 9.175 20.48 20.48v40.96h215.040v-204.8h-573.44z" />
<glyph unicode="&#xe936;" glyph-name="mano" d="M265.708 387.154c0-6.82 2.642-35.42 21.965-69.366 16.353-28.733 47.401-62.341 104.54-69.775v-185.58c0-13.21 10.701-23.91 23.91-23.91s23.91 10.711 23.91 23.91v208.005c0 13.21-10.701 23.91-23.91 23.91-39.311 0-68.291 15.411-86.139 45.814-13.169 22.415-16.507 41.359-16.507 49.695 0 50.473 0 196.219 0 196.219 0 4.25 0 15.544 19.64 15.544s19.64-11.295 19.64-15.544v-82.371c0-6.523 2.662-12.769 7.383-17.275 4.71-4.506 11.059-6.922 17.582-6.615 0.061 0.031 13.978-0.051 31.58-9.994 27.023-15.268 48.824-45.896 63.058-88.586 4.178-12.534 17.725-19.302 30.249-15.124 12.534 4.178 19.302 17.725 15.124 30.249-30.935 92.826-85.34 120.105-117.135 128.041v221.215c0 5.171 0 13.834 19.64 13.834s19.64-8.663 19.64-13.834v-130.499c0-13.21 10.711-23.91 23.91-23.91 13.21 0 23.91 10.701 23.91 23.91v159.529c0 5.171 0 13.834 19.64 13.834s19.64-8.663 19.64-13.834v-159.529c0-13.21 10.711-23.91 23.91-23.91 13.21 0 23.91 10.701 23.91 23.91v130.499c0 5.171 0 13.834 19.64 13.834s19.64-8.663 19.64-13.834v-169.953c0-13.21 10.711-23.91 23.91-23.91 13.21 0 23.91 10.711 23.91 23.91v89.334c0 4.25 0 15.544 19.64 15.544s19.661-11.295 19.661-15.544v-277.545c0.031-0.42 1.71-43.131-23.654-69.96-14.51-15.36-36.086-23.142-64.123-23.142-13.21 0-23.91-10.711-23.91-23.91v-207.995c0-13.21 10.701-23.91 23.91-23.91s23.91 10.711 23.91 23.91v185.6c30.679 4.086 55.828 16.343 74.967 36.598 37.734 39.926 36.997 96.768 36.7 104.673v275.681c0 37.304-27.74 63.365-67.461 63.365-6.943 0-13.517-0.819-19.64-2.324v19.579c0 36.884-27.116 61.655-67.461 61.655-9.503 0-18.268-1.393-26.122-3.973-10.312 20.49-32.287 33.014-60.969 33.014s-50.657-12.524-60.979-33.014c-7.854 2.58-16.609 3.973-26.122 3.973-40.356 0-67.461-24.781-67.461-61.655v-98.488c-6.124 1.516-12.698 2.324-19.64 2.324-39.721 0-67.461-26.061-67.461-63.365-0.031 0 0.020-147.343 0.020-198.932z" />
<glyph unicode="&#xe937;" glyph-name="mas" d="M516.137 777.882c-87.532 0-169.82-34.099-231.7-95.99-61.901-61.891-95.99-144.169-95.99-231.69s34.089-169.81 95.99-231.69c61.88-61.901 144.169-96 231.7-96 87.521 0 169.81 34.099 231.7 95.99 61.901 61.891 95.99 144.169 95.99 231.7 0 87.521-34.089 169.8-95.99 231.69-61.891 61.901-144.179 95.99-231.7 95.99zM718.868 247.47c-54.159-54.159-126.157-83.999-202.742-83.999-76.595 0-148.593 29.829-202.742 83.999-54.159 54.149-83.988 126.147-83.988 202.721s29.829 148.572 83.988 202.732c54.149 54.159 126.147 83.999 202.742 83.999 76.575 0 148.582-29.829 202.742-83.999 54.159-54.149 83.988-126.147 83.988-202.721 0.010-76.585-29.819-148.582-83.988-202.732zM700.457 470.682h-163.84v163.84c0 11.305-9.175 20.48-20.48 20.48-11.315 0-20.48-9.175-20.48-20.48v-163.84h-163.84c-11.315 0-20.48-9.175-20.48-20.48 0-11.315 9.165-20.48 20.48-20.48h163.84v-163.84c0-11.315 9.165-20.48 20.48-20.48 11.305 0 20.48 9.165 20.48 20.48v163.84h163.84c11.305 0 20.48 9.165 20.48 20.48 0 11.305-9.175 20.48-20.48 20.48z" />
<glyph unicode="&#xe938;" glyph-name="menos" d="M505.897 777.882c-87.532 0-169.82-34.089-231.7-95.98-61.901-61.891-95.99-144.179-95.99-231.7s34.089-169.81 95.99-231.7c61.88-61.891 144.169-95.98 231.7-95.98s169.82 34.089 231.7 95.98c61.901 61.891 95.99 144.179 95.99 231.7s-34.089 169.81-95.99 231.69c-61.88 61.901-144.179 95.99-231.7 95.99zM708.628 247.46c-54.149-54.159-126.147-83.988-202.742-83.988s-148.593 29.829-202.742 83.988c-54.159 54.149-83.988 126.147-83.988 202.732s29.829 148.582 83.988 202.732c54.149 54.159 126.147 83.988 202.742 83.988 76.585 0 148.593-29.829 202.742-83.988 54.159-54.149 83.988-126.147 83.988-202.732s-29.829-148.582-83.988-202.732zM690.217 470.682h-368.64c-11.315 0-20.48-9.175-20.48-20.48 0-11.315 9.165-20.48 20.48-20.48h368.64c11.305 0 20.48 9.165 20.48 20.48 0 11.305-9.175 20.48-20.48 20.48z" />
<glyph unicode="&#xe939;" glyph-name="menu" d="M790.61 293.939h-511.969c-14.141 0-25.6-11.459-25.6-25.6s11.459-25.6 25.6-25.6h511.969c14.141 0 25.6 11.459 25.6 25.6 0 14.131-11.459 25.6-25.6 25.6zM790.61 485.939h-511.969c-14.141 0-25.6-11.459-25.6-25.6s11.459-25.6 25.6-25.6h511.969c14.141 0 25.6 11.459 25.6 25.6s-11.459 25.6-25.6 25.6zM790.61 662.589h-511.969c-14.141 0-25.6-11.459-25.6-25.6s11.459-25.6 25.6-25.6h511.969c14.141 0 25.6 11.459 25.6 25.6s-11.459 25.6-25.6 25.6z" />
<glyph unicode="&#xe93a;" glyph-name="menu_cierra" d="M661.74 545.147c4.004-4.004 9.236-6.001 14.479-6.001s10.476 1.997 14.479 6.001l36.721 36.721 36.721-36.721c4.004-4.004 9.236-6.001 14.479-6.001s10.476 1.997 14.479 6.001c7.997 7.997 7.997 20.961 0 28.959l-36.721 36.721 36.721 36.721c7.997 7.997 7.997 20.961 0 28.959s-20.961 7.997-28.959 0l-36.721-36.721-36.721 36.721c-7.997 7.997-20.961 7.997-28.959 0s-7.997-20.961 0-28.959l36.721-36.721-36.721-36.721c-8.008-7.997-8.008-20.951 0-28.959zM785.705 273.459h-511.98c-14.141 0-25.6-11.459-25.6-25.6s11.459-25.6 25.6-25.6h511.969c14.141 0 25.6 11.459 25.6 25.6 0.010 14.131-11.459 25.6-25.59 25.6zM785.705 465.459h-511.98c-14.141 0-25.6-11.459-25.6-25.6s11.459-25.6 25.6-25.6h511.969c14.141 0 25.6 11.459 25.6 25.6 0.010 14.141-11.459 25.6-25.59 25.6zM563.896 642.109h-290.171c-14.141 0-25.6-11.459-25.6-25.6s11.459-25.6 25.6-25.6h290.161c14.141 0 25.6 11.459 25.6 25.6 0.010 14.141-11.459 25.6-25.59 25.6z" />
<glyph unicode="&#xe93b;" glyph-name="movil" d="M672.123 774.513h-327.68c-11.315 0-20.48-9.175-20.48-20.48v-614.4c0-11.305 9.165-20.48 20.48-20.48h327.68c11.305 0 20.48 9.175 20.48 20.48v614.4c0 11.305-9.165 20.48-20.48 20.48zM651.643 160.113h-286.72v573.44h286.72v-573.44zM518.523 242.033h-20.48c-11.315 0-20.48-9.175-20.48-20.48s9.165-20.48 20.48-20.48h20.48c11.305 0 20.48 9.175 20.48 20.48s-9.165 20.48-20.48 20.48zM436.603 651.633h143.36c11.305 0 20.48 9.175 20.48 20.48s-9.175 20.48-20.48 20.48h-143.36c-11.315 0-20.48-9.175-20.48-20.48s9.175-20.48 20.48-20.48z" />
<glyph unicode="&#xe93c;" glyph-name="navegar" d="M476.662 528.814h-166.144c-7.772 0-13.988-6.216-13.988-13.988v-166.144c0-7.772 6.216-13.988 13.988-13.988h166.144c7.772 0 13.988 6.216 13.988 13.988v166.144c0 7.772-6.216 13.988-13.988 13.988zM462.684 362.67h-138.179v138.168h138.168v-138.168zM310.518 85.473h166.144c7.772 0 13.988 6.216 13.988 13.988v69.089h279.603c7.772 0 13.988 6.216 13.988 13.988v501.402c0 7.772-6.216 13.988-13.988 13.988h-176.886l28.826 28.826c5.509 5.509 5.509 14.264 0 19.784-5.509 5.509-14.264 5.509-19.784 0l-52.695-52.695c-5.509-5.509-5.509-14.264 0-19.784l52.695-52.695c2.683-2.683 6.359-4.096 9.892-4.096s7.209 1.413 9.892 4.096c5.509 5.509 5.509 14.264 0 19.784l-28.826 28.826h162.898v-473.436h-265.615v69.089c0 7.772-6.216 13.988-13.988 13.988h-166.144c-7.772 0-13.988-6.216-13.988-13.988v-166.144c0-7.649 6.359-14.008 13.988-14.008zM324.506 251.617h138.168v-138.168h-138.168v138.168zM490.65 764.047c0 7.772-6.216 13.988-13.988 13.988h-166.144c-7.772 0-13.988-6.216-13.988-13.988v-166.144c0-7.772 6.216-13.988 13.988-13.988h166.144c7.772 0 13.988 6.216 13.988 13.988v166.144zM462.684 611.891h-138.179v138.168h138.168v-138.168z" />
<glyph unicode="&#xe93d;" glyph-name="notas_mas" d="M413.153 758.579l-25.057-50.125h-99.983c-11.315 0-20.48-9.175-20.48-20.48v-552.96c0-11.305 9.165-20.48 20.48-20.48h450.56c11.305 0 20.48 9.175 20.48 20.48v552.96c0 11.305-9.175 20.48-20.48 20.48h-99.983l-25.057 50.115c-3.471 6.932-10.557 11.325-18.319 11.325h-163.84c-7.762 0-14.848-4.383-18.319-11.315zM718.193 667.494v-512h-409.6v512h59.023l-15.903-31.805c-3.164-6.349-2.826-13.885 0.901-19.927s10.322-9.718 17.418-9.718h286.72c0.082 0 0.154 0 0.195 0 11.325 0 20.48 9.175 20.48 20.48 0 4.28-1.311 8.253-3.553 11.53l-14.715 29.43h59.034zM582.656 728.934l40.96-81.92h-220.447l40.96 81.92h138.527zM595.313 442.214h-61.44v61.44c0 11.305-9.175 20.48-20.48 20.48-11.315 0-20.48-9.175-20.48-20.48v-61.44h-61.44c-11.315 0-20.48-9.175-20.48-20.48s9.165-20.48 20.48-20.48h61.44v-61.44c0-11.305 9.165-20.48 20.48-20.48 11.305 0 20.48 9.175 20.48 20.48v61.44h61.44c11.305 0 20.48 9.175 20.48 20.48s-9.165 20.48-20.48 20.48z" />
<glyph unicode="&#xe93e;" glyph-name="notas_ok" d="M738.673 114.534c11.305 0 20.48 9.175 20.48 20.48v552.96c0 11.305-9.175 20.48-20.48 20.48h-99.983l-25.057 50.115c-3.471 6.932-10.557 11.325-18.319 11.325h-163.84c-7.762 0-14.848-4.383-18.319-11.325l-25.057-50.115h-99.983c-11.315 0-20.48-9.175-20.48-20.48v-552.96c0-11.305 9.165-20.48 20.48-20.48h450.56zM444.129 728.934h138.527l40.96-81.92h-220.447l40.96 81.92zM308.593 667.494h59.023l-15.903-31.805c-3.164-6.349-2.826-13.885 0.901-19.927s10.322-9.718 17.418-9.718h286.72c0.082 0 0.164 0 0.195 0 11.325 0 20.48 9.175 20.48 20.48 0 4.28-1.311 8.253-3.553 11.53l-14.715 29.43h59.023v-512h-409.6v512.010zM580.833 477.174l-87.921-87.921-46.961 46.961c-7.997 7.997-20.961 7.997-28.959 0s-7.997-20.961 0-28.959l61.44-61.44c4.004-4.004 9.236-6.001 14.479-6.001s10.476 1.997 14.479 6.001l102.4 102.4c7.997 7.997 7.997 20.961 0 28.959-7.997 8.008-20.961 8.008-28.959 0z" />
<glyph unicode="&#xe93f;" glyph-name="ok" d="M428.677 328.151c4.004-4.004 9.236-6.001 14.479-6.001s10.476 1.997 14.479 6.001l210.77 210.77c7.997 7.997 7.997 20.961 0 28.959s-20.961 7.997-28.959 0l-196.291-196.291-73.452 73.441c-7.997 7.997-20.961 7.997-28.959 0s-7.997-20.961 0-28.959l87.931-87.921z" />
<glyph unicode="&#xe940;" glyph-name="ok_2" d="M505.897 122.522c87.521 0 169.81 34.089 231.69 95.98 61.891 61.891 95.99 144.179 95.99 231.7s-34.089 169.81-95.98 231.69c-61.891 61.891-144.179 95.99-231.7 95.99s-169.81-34.089-231.7-95.98c-61.891-61.891-95.98-144.179-95.98-231.7s34.089-169.81 95.98-231.7c61.891-61.891 144.169-95.98 231.7-95.98zM303.165 652.933c54.149 54.159 126.147 83.988 202.732 83.988s148.582-29.829 202.732-83.988c54.159-54.149 83.988-126.147 83.988-202.732s-29.829-148.582-83.988-202.732c-54.149-54.159-126.147-83.988-202.732-83.988s-148.582 29.829-202.732 83.988c-54.159 54.149-83.988 126.147-83.988 202.732s29.819 148.582 83.988 202.732zM423.322 286.362c0.215 0 0.44 0 0.655 0 5.56 0 10.895 2.263 14.766 6.287l256 266.24c7.834 8.151 7.588 21.115-0.573 28.959s-21.115 7.578-28.959-0.573l-240.271-249.876-97.976 115.794c-7.311 8.643-20.234 9.718-28.867 2.406-8.632-7.301-9.708-20.234-2.406-28.867l112.64-133.13c3.748-4.424 9.196-7.24 14.991-7.24z" />
<glyph unicode="&#xe941;" glyph-name="pause" d="M432.855 568.709c-11.315 0-20.48-9.175-20.48-20.48v-184.32c0-11.305 9.165-20.48 20.48-20.48 11.305 0 20.48 9.175 20.48 20.48v184.32c0 11.305-9.165 20.48-20.48 20.48zM596.695 568.709c-11.315 0-20.48-9.175-20.48-20.48v-184.32c0-11.305 9.165-20.48 20.48-20.48 11.305 0 20.48 9.175 20.48 20.48v184.32c0 11.305-9.165 20.48-20.48 20.48zM514.775 783.749c-87.521 0-169.81-34.089-231.7-95.99-61.891-61.88-95.98-144.169-95.98-231.69s34.089-169.81 95.98-231.69c61.891-61.901 144.179-95.99 231.7-95.99s169.81 34.089 231.7 95.99c61.891 61.88 95.98 144.169 95.98 231.69s-34.089 169.81-95.98 231.69c-61.891 61.901-144.179 95.99-231.7 95.99zM717.507 253.338c-54.149-54.159-126.157-83.988-202.732-83.988-76.585 0-148.582 29.829-202.732 83.988-54.159 54.149-83.988 126.147-83.988 202.732s29.829 148.582 83.988 202.732c54.149 54.159 126.147 83.988 202.732 83.988 76.575 0 148.582-29.829 202.742-83.988 54.159-54.149 83.988-126.147 83.988-202.732s-29.829-148.582-83.999-202.732z" />
<glyph unicode="&#xe942;" glyph-name="pdf" d="M960.901 477.225c-0.092 1.382-0.348 2.714-0.809 4.014-0.164 0.492-0.287 0.963-0.502 1.434-0.727 1.587-1.659 3.072-2.939 4.342-0.010 0.010-0.010 0.010-0.010 0.010l-86.866 86.876v85.023c0 0.338-0.164 0.625-0.195 0.963-0.092 1.341-0.348 2.632-0.778 3.912-0.164 0.492-0.287 0.963-0.522 1.434-0.748 1.618-1.679 3.154-2.98 4.465l-136.991 136.98c-1.311 1.311-2.847 2.253-4.475 3-0.461 0.195-0.911 0.338-1.372 0.492-1.311 0.461-2.652 0.717-4.014 0.809-0.307 0.010-0.573 0.164-0.881 0.164h-380.518c-8.397 0-15.217-6.82-15.217-15.217v-222.013l-86.866-86.866c0 0-0.010-0.010-0.031-0.031-1.28-1.28-2.191-2.775-2.918-4.342-0.215-0.471-0.338-0.942-0.502-1.434-0.461-1.311-0.727-2.632-0.809-4.014-0.031-0.338-0.195-0.604-0.195-0.942v-289.198c0-8.397 6.82-15.217 15.217-15.217h76.104v-76.104c0-8.397 6.82-15.217 15.217-15.217h517.509c8.397 0 15.217 6.82 15.217 15.217v76.104h76.104c8.397 0 15.217 6.82 15.217 15.217v289.198c0 0.338-0.164 0.614-0.195 0.942zM909.128 491.5h-39.363v39.363l39.363-39.363zM817.807 674.15h-85.023v85.023l85.023-85.023zM352.266 780.698h350.075v-121.764c0-8.397 6.82-15.217 15.217-15.217h121.764v-152.207h-487.055v289.188zM321.823 530.862v-39.363h-39.363l39.363 39.363zM839.332 110.981h-487.066v60.887h487.066v-60.887zM930.652 202.312h-669.716v258.755h669.716v-258.755zM508.334 404.439c-4.915 4.219-10.476 7.199-16.701 8.919-6.205 1.72-12.257 2.591-18.115 2.591h-50.708v-183.194h30.536v73.482h21.74c6.38 0 12.585 1.126 18.627 3.359s11.387 5.693 16.046 10.353c4.659 4.659 8.397 10.476 11.264 17.469 2.847 6.984 4.28 15.124 4.28 24.443 0 10.353-1.597 18.985-4.792 25.876-3.205 6.902-7.25 12.472-12.175 16.701zM488.806 339.22c-4.659-5.079-10.609-7.629-17.859-7.629h-17.592v58.225h17.592c7.25 0 13.199-2.232 17.859-6.728 4.659-4.485 6.984-11.643 6.984-21.473 0.010-9.841-2.324-17.295-6.984-22.395zM698.122 232.755h31.314v78.653h46.838v26.655h-47.084v49.94h50.964v27.945h-82.033zM596.951 415.949h-46.060v-183.194h45.804c23.634 0 41.533 7.977 53.699 23.931 12.165 15.964 18.237 38.431 18.237 67.41s-6.072 51.538-18.237 67.676c-12.165 16.108-29.972 24.177-53.443 24.177zM634.614 296.028c-1.976-8.038-4.792-14.715-8.397-20.060-3.625-5.345-7.926-9.359-12.933-12.022-5.007-2.683-10.445-4.014-16.302-4.014h-14.746v128.85h14.746c5.857 0 11.295-1.341 16.302-4.014 5.007-2.662 9.318-6.687 12.933-12.022 3.625-5.345 6.42-12.073 8.397-20.183s2.98-17.592 2.98-28.467c0-10.701-1.004-20.050-2.98-28.068z" />
<glyph unicode="&#xe943;" glyph-name="play" d="M511.017 777.667c-87.521 0-169.81-34.089-231.7-95.99-61.891-61.891-95.98-144.179-95.98-231.7s34.089-169.81 95.98-231.7c61.891-61.901 144.179-95.99 231.7-95.99s169.81 34.089 231.7 95.99c61.891 61.891 95.98 144.179 95.98 231.7s-34.089 169.81-95.98 231.7c-61.891 61.901-144.179 95.99-231.7 95.99zM713.759 247.235c-54.149-54.159-126.157-83.988-202.742-83.988s-148.582 29.829-202.732 83.988c-54.159 54.159-83.988 126.157-83.988 202.742s29.829 148.582 83.988 202.742c54.149 54.159 126.147 83.988 202.732 83.988 76.575 0 148.582-29.829 202.742-83.988s83.988-126.157 83.988-202.742-29.829-148.582-83.988-202.742zM615.834 466.074l-143.36 112.64c-6.164 4.844-14.551 5.734-21.606 2.314-7.045-3.43-11.52-10.578-11.52-18.422v-225.28c0-7.844 4.475-14.991 11.52-18.422 2.847-1.382 5.908-2.058 8.95-2.058 4.506 0 8.98 1.485 12.657 4.383l143.36 112.64c4.936 3.881 7.823 9.82 7.823 16.097 0 6.287-2.888 12.227-7.823 16.108zM480.297 379.474v141.005l89.733-70.502-89.733-70.502z" />
<glyph unicode="&#xe944;" glyph-name="portatil" d="M201.083 221.553h614.4c11.315 0 20.48 9.175 20.48 20.48v61.44c0 11.305-9.165 20.48-20.48 20.48h-40.96v327.68c0 11.305-9.165 20.48-20.48 20.48h-491.52c-11.305 0-20.48-9.175-20.48-20.48v-327.68h-40.96c-11.305 0-20.48-9.175-20.48-20.48v-61.44c0-11.315 9.175-20.48 20.48-20.48zM283.003 631.153h450.56v-307.2h-450.56v307.2zM221.563 282.993h573.44v-20.48h-573.44v20.48zM493.742 604.733c-3.789-3.891-5.939-9.206-5.939-14.541 0-5.427 2.15-10.65 6.042-14.438 3.789-3.891 9.011-6.042 14.438-6.042s10.65 2.15 14.541 6.042c3.789 3.789 5.939 9.124 5.939 14.438 0 5.335-2.15 10.65-6.042 14.541-7.578 7.578-21.299 7.578-28.979 0z" />
<glyph unicode="&#xe945;" glyph-name="pregunta" d="M539.863 196.188c-11.305 0-20.48-9.175-20.48-20.48v-42.844c0-11.305 9.175-20.48 20.48-20.48s20.48 9.175 20.48 20.48v42.844c0 11.315-9.175 20.48-20.48 20.48zM720.486 757.842c-36.905 29.788-79.913 44.892-127.805 44.892-48.855 0-91.003-13.998-125.297-41.605-34.58-27.843-57.119-71.782-66.98-130.591-1.874-11.151 5.663-21.719 16.814-23.583 11.131-1.853 21.709 5.652 23.583 16.814 8.141 48.62 25.733 84.091 52.265 105.452 27.208 21.903 59.791 32.553 99.615 32.553 38.84 0 72.233-11.715 102.083-35.809 28.518-23.030 42.383-49.869 42.383-82.053 0-16.456-4.332-31.304-13.24-45.404-6.615-10.465-23.153-29.747-64.471-62.188-53.944-42.578-88.658-75.776-106.127-101.499-25.518-37.519-38.461-84.244-38.461-138.854 0-0.338 0.010-0.676 0.020-1.034l1.423-28.293c0.553-10.936 9.595-19.446 20.439-19.446 0.348 0 0.696 0.010 1.055 0.031 11.295 0.563 19.988 10.179 19.415 21.484l-1.393 27.771c0.082 46.019 10.629 84.808 31.365 115.313 14.889 21.914 47.739 52.992 97.597 92.344 37.335 29.317 61.471 53.043 73.759 72.499 12.995 20.541 19.569 43.182 19.569 67.277 0 44.728-19.374 83.067-57.61 113.93z" />
<glyph unicode="&#xe946;" glyph-name="presentacion" d="M773.468 329.759c11.315 0 20.48 9.175 20.48 20.48v368.64c0 11.305-9.165 20.48-20.48 20.48h-245.76v20.48c0 11.305-9.175 20.48-20.48 20.48s-20.48-9.175-20.48-20.48v-20.48h-245.76c-11.305 0-20.48-9.175-20.48-20.48v-368.64c0-11.305 9.175-20.48 20.48-20.48h245.76v-104.161l-65.679-65.679c-7.997-7.997-7.997-20.961 0-28.959s20.961-7.997 28.959 0l36.721 36.721v-22.241c0-11.305 9.175-20.48 20.48-20.48s20.48 9.175 20.48 20.48v22.241l36.721-36.721c4.004-4.004 9.236-6.001 14.479-6.001s10.476 1.997 14.479 6.001c7.997 7.997 7.997 20.961 0 28.959l-65.679 65.679v104.161h245.76zM261.468 698.399h491.52v-327.68h-491.52v327.68zM650.588 534.559c0-11.305 9.165-20.48 20.48-20.48s20.48 9.175 20.48 20.48v102.4c0 1.341-0.143 2.693-0.399 4.014-0.133 0.614-0.358 1.178-0.532 1.772-0.205 0.686-0.358 1.382-0.635 2.048-0.297 0.696-0.696 1.341-1.065 1.997-0.276 0.512-0.502 1.044-0.819 1.516-1.505 2.253-3.441 4.178-5.693 5.683-0.481 0.328-1.014 0.553-1.516 0.829-0.666 0.358-1.3 0.758-1.997 1.065-0.666 0.266-1.362 0.43-2.048 0.635-0.594 0.174-1.157 0.399-1.772 0.532-1.321 0.256-2.673 0.399-4.014 0.399h-102.4c-11.305 0-20.48-9.175-20.48-20.48s9.175-20.48 20.48-20.48h52.961l-134.871-134.892-46.961 46.961c-7.997 7.997-20.961 7.997-28.959 0l-81.92-81.92c-7.997-7.997-7.997-20.961 0-28.959 4.004-4.004 9.236-6.001 14.479-6.001s10.476 1.997 14.479 6.001l67.441 67.441 46.961-46.961c7.997-7.997 20.961-7.997 28.959 0l149.361 149.361v-52.961z" />
<glyph unicode="&#xe947;" glyph-name="recargar" d="M496.947 759.839c0-11.305 9.175-20.48 20.48-20.48 76.585 0 148.582-29.819 202.742-83.978s83.978-126.157 83.978-202.742c0-75.581-29.102-146.668-81.92-200.571v57.211c0 11.305-9.165 20.48-20.48 20.48-11.305 0-20.48-9.175-20.48-20.48v-122.88h122.88c11.315 0 20.48 9.175 20.48 20.48s-9.165 20.48-20.48 20.48h-48.896c57.958 61.123 89.856 140.718 89.856 225.28 0 87.521-34.079 169.81-95.98 231.7-61.88 61.901-144.169 95.98-231.7 95.98-11.295 0-20.48-9.175-20.48-20.48zM285.737 220.938c61.891-61.901 144.169-95.98 231.69-95.98 11.315 0 20.48 9.175 20.48 20.48s-9.165 20.48-20.48 20.48c-76.585 0-148.582 29.819-202.721 83.978-54.17 54.159-83.999 126.157-83.999 202.742 0 75.581 29.102 146.668 81.92 200.571v-57.211c0-11.305 9.175-20.48 20.48-20.48 11.315 0 20.48 9.175 20.48 20.48v122.88h-122.88c-11.305 0-20.48-9.175-20.48-20.48s9.175-20.48 20.48-20.48h48.916c-57.979-61.123-89.876-140.718-89.876-225.28 0-87.521 34.099-169.81 95.99-231.7z" />
<glyph unicode="&#xe948;" glyph-name="reload" d="M736.799 300.851h-430.080v175.841l46.961-46.961c4.004-4.004 9.236-6.001 14.479-6.001s10.476 1.997 14.479 6.001c7.997 7.997 7.997 20.961 0 28.959l-81.91 81.91c-0.952 0.952-2.007 1.812-3.144 2.57-0.481 0.317-1.014 0.543-1.516 0.819-0.655 0.358-1.3 0.758-1.997 1.065-0.666 0.266-1.362 0.43-2.048 0.625-0.594 0.174-1.157 0.399-1.772 0.532-2.652 0.522-5.366 0.522-8.018 0-0.614-0.133-1.178-0.358-1.772-0.532-0.686-0.205-1.382-0.358-2.048-0.625-0.696-0.297-1.341-0.696-1.997-1.065-0.512-0.276-1.034-0.502-1.516-0.819-1.126-0.758-2.191-1.618-3.144-2.57l-81.91-81.91c-7.997-7.997-7.997-20.961 0-28.959s20.961-7.997 28.959 0l46.961 46.961v-196.321c0-11.305 9.175-20.48 20.48-20.48h450.56c11.305 0 20.48 9.175 20.48 20.48s-9.175 20.48-20.49 20.48zM804.239 458.691l-46.961-46.961v196.321c0 11.305-9.175 20.48-20.48 20.48h-450.56c-11.305 0-20.48-9.175-20.48-20.48s9.175-20.48 20.48-20.48h430.080v-175.841l-46.961 46.961c-7.997 7.997-20.961 7.997-28.959 0s-7.997-20.961 0-28.959l81.91-81.91c0.952-0.952 2.007-1.812 3.144-2.57 0.481-0.317 1.014-0.543 1.516-0.819 0.655-0.358 1.3-0.758 1.997-1.065 0.666-0.266 1.362-0.43 2.048-0.635 0.594-0.174 1.157-0.399 1.772-0.532 1.321-0.256 2.673-0.399 4.014-0.399s2.693 0.143 4.014 0.399c0.614 0.133 1.178 0.358 1.772 0.532 0.686 0.205 1.382 0.358 2.048 0.635 0.696 0.297 1.341 0.696 1.997 1.065 0.512 0.276 1.044 0.502 1.516 0.819 1.126 0.758 2.191 1.618 3.144 2.57l81.91 81.91c7.997 7.997 7.997 20.961 0 28.959s-20.951 7.997-28.959 0z" />
<glyph unicode="&#xe949;" glyph-name="reloj" d="M511.058 783.124c-87.521 0-169.81-34.089-231.69-95.99-61.891-61.88-95.99-144.169-95.99-231.69s34.089-169.81 95.98-231.69c61.891-61.901 144.179-95.99 231.7-95.99s169.81 34.089 231.7 95.99c61.891 61.88 95.99 144.169 95.99 231.69s-34.089 169.81-95.98 231.69c-61.901 61.901-144.189 95.99-231.711 95.99zM713.789 252.713c-54.149-54.159-126.157-83.988-202.732-83.988-76.585 0-148.582 29.829-202.732 83.988-54.159 54.149-83.988 126.147-83.988 202.732s29.829 148.582 83.988 202.732c54.149 54.159 126.147 83.988 202.732 83.988s148.582-29.829 202.742-83.988c54.159-54.149 83.988-126.147 83.988-202.732s-29.829-148.582-83.999-202.732zM662.477 412.826l-130.949 56.115v211.784c0 11.305-9.175 20.48-20.48 20.48s-20.48-9.175-20.48-20.48v-225.28c0-8.192 4.884-15.596 12.411-18.821l143.36-61.44c2.632-1.126 5.366-1.669 8.059-1.669 7.946 0.010 15.503 4.659 18.831 12.421 4.465 10.404-0.348 22.446-10.752 26.89zM306.258 475.924h-20.48c-11.305 0-20.48-9.175-20.48-20.48s9.175-20.48 20.48-20.48h20.48c11.305 0 20.48 9.175 20.48 20.48s-9.175 20.48-20.48 20.48zM695.378 455.444c0-11.305 9.175-20.48 20.48-20.48h20.48c11.305 0 20.48 9.175 20.48 20.48s-9.175 20.48-20.48 20.48h-20.48c-11.315 0-20.48-9.165-20.48-20.48zM511.058 271.124c-11.305 0-20.48-9.175-20.48-20.48v-20.48c0-11.305 9.175-20.48 20.48-20.48s20.48 9.175 20.48 20.48v20.48c0 11.315-9.175 20.48-20.48 20.48z" />
<glyph unicode="&#xe94a;" glyph-name="repliega" d="M362.209 530.432h-52.961c-11.305 0-20.48-9.175-20.48-20.48s9.175-20.48 20.48-20.48h122.88v122.88c0 11.305-9.175 20.48-20.48 20.48-11.315 0-20.48-9.175-20.48-20.48v-52.961l-169.851 169.841c-7.987 7.997-20.961 7.997-28.959 0s-7.997-20.961 0-28.959l169.851-169.841zM665.887 366.592h52.961c11.305 0 20.48 9.175 20.48 20.48s-9.175 20.48-20.48 20.48h-122.88v-122.88c0-11.305 9.165-20.48 20.48-20.48 11.305 0 20.48 9.175 20.48 20.48v52.961l169.841-169.841c4.004-4.004 9.247-6.001 14.49-6.001s10.486 1.997 14.479 6.001c7.997 7.997 7.997 20.961 0 28.959l-169.851 169.841zM206.848 161.792c5.243 0 10.486 1.997 14.479 6.001l169.841 169.841v-52.961c0-11.305 9.165-20.48 20.48-20.48 11.305 0 20.48 9.175 20.48 20.48v122.88h-122.88c-11.305 0-20.48-9.175-20.48-20.48s9.175-20.48 20.48-20.48h52.961l-169.841-169.841c-7.997-7.997-7.997-20.961 0-28.959 3.994-4.004 9.236-6.001 14.479-6.001zM806.758 729.231l-169.841-169.841v52.961c0 11.305-9.175 20.48-20.48 20.48-11.315 0-20.48-9.175-20.48-20.48v-122.88h122.88c11.305 0 20.48 9.175 20.48 20.48s-9.175 20.48-20.48 20.48h-52.961l169.841 169.841c7.997 7.997 7.997 20.961 0 28.959-7.977 7.997-20.972 7.997-28.959 0z" />
<glyph unicode="&#xe94b;" glyph-name="reunion_grupo" d="M821.32 477.993c22.333 21.012 36.403 50.842 36.403 83.978v1.71c0 62.966-51.231 114.196-114.196 114.196h-1.7c-47.759 0-88.709-29.501-105.728-71.209-21.279 43.817-66.099 74.158-117.985 74.158h-2.56c-47.739 0-89.477-25.702-112.445-63.918-18.094 39.24-57.702 66.601-103.67 66.601h-1.71c-62.966 0-114.196-51.231-114.196-114.196v-1.7c0-33.137 14.060-62.966 36.393-83.978-58.921-4.936-105.4-54.344-105.4-114.524v-51.968c0-25.815 20.224-46.039 46.039-46.039h129.188v-43.551c0-25.815 20.224-46.039 46.039-46.039h362.936c25.815 0 46.029 20.224 46.029 46.039v37.908h135.936c25.815 0 46.029 20.224 46.029 46.039v51.958c0 60.18-46.479 109.609-105.4 114.534zM668.58 563.671c0 40.376 32.86 73.236 73.236 73.236h1.7c40.376 0 73.236-32.85 73.236-73.236v-1.71c0-40.847-32.86-74.086-73.236-74.086h-1.7c-40.376 0-73.236 32.85-73.236 73.236v2.56zM425.267 549.591c0 49.777 40.499 90.276 90.276 90.276h2.56c49.777 0 90.266-40.499 90.266-90.276v-2.56c0-24.197-9.359-46.889-26.368-63.898s-39.7-26.378-63.898-26.378h-2.56c-49.777 0-90.276 40.499-90.276 90.276v2.56zM559.258 422.441c-2.673-3.297-5.376-6.758-8.151-10.322-8.315-10.711-25.59-32.993-33.864-32.993-7.311 0-24.187 21.381-32.297 31.662-3.052 3.871-6.021 7.598-8.94 11.131 12.483-3.953 25.754-6.113 39.537-6.113h2.56c14.213-0.010 28.047 2.335 41.155 6.636zM224.492 569.313c0 40.376 32.85 73.236 73.236 73.236h1.71c40.376 0 73.236-32.85 73.236-73.236v-2.56c0-40.376-32.85-73.236-73.236-73.236h-1.71c-40.376 0-73.236 33.239-73.236 74.086v1.71zM290.714 312.064h-130.15c-3.185 0-5.079 1.905-5.079 5.079v51.968c0 40.847 33.239 74.086 74.086 74.086 0.819 0 1.638 0.051 2.458 0.154l55.194 6.666c2.888 0.348 5.55 1.3 7.916 2.683 0.87-0.020 1.72-0.133 2.601-0.133h1.71c38.543 0 72.632 19.251 93.317 48.589 8.028-21.422 21.402-40.233 38.625-54.682-0.573-0.041-1.137 0.072-1.71 0-72.96-5.468-131.144-63.13-138.967-134.41zM703.785 227.553c0-3.185-1.905-5.079-5.069-5.079h-362.936c-3.185 0-5.079 1.905-5.079 5.079v68.157c0 57.344 44.81 105.626 102.748 109.988 0.215 0.031 0.42 0.041 0.604 0.041 0.942 0 1.608-0.328 2.601-1.321 4.618-4.403 10.22-11.5 16.148-19.005 17.48-22.149 37.274-47.247 64.451-47.247 28.344 0 49.347 27.085 66.222 48.845 5.427 6.994 10.547 13.588 14.715 17.756 0.85 0.85 1.577 1.065 3.84 0.86 57.068-3.574 101.765-51.845 101.765-109.906v-68.168zM885.76 311.501c0-3.185-1.905-5.079-5.069-5.079h-136.458c-5.243 74.772-64.573 135.383-138.67 139.991-1.065 0.123-2.089-0.041-3.144 0.010 2.929 2.458 5.806 5.007 8.54 7.752 14.531 14.531 25.108 31.939 31.457 50.924 19.62-34.673 56.791-58.173 99.4-58.173h1.7c0.881 0 1.731 0.113 2.601 0.133 2.355-1.382 5.018-2.335 7.916-2.683l55.194-6.666c0.819-0.102 1.638-0.154 2.458-0.154 40.847 0 74.076-33.239 74.076-74.086v-51.968z" />
<glyph unicode="&#xe94c;" glyph-name="seguro" d="M505.047 771.891c-180.675 0-327.68-146.995-327.68-327.68s147.005-327.68 327.68-327.68 327.68 146.995 327.68 327.68-146.995 327.68-327.68 327.68zM779.786 526.131h-110.899c-3.338 0-6.441-0.881-9.216-2.294-16.599 32.113-42.865 58.378-74.977 74.988 1.423 2.775 2.284 5.878 2.284 9.216v110.899c92.314-27.566 165.233-100.485 192.809-192.809zM674.068 485.171h114.739c1.925-13.384 2.959-27.054 2.959-40.96s-1.044-27.576-2.959-40.96h-114.739c3.185 13.158 5.059 26.829 5.059 40.96s-1.874 27.802-5.059 40.96zM505.047 311.091c-73.4 0-133.12 59.72-133.12 133.12s59.72 133.12 133.12 133.12 133.12-59.72 133.12-133.12-59.72-133.12-133.12-133.12zM546.007 727.962v-114.739c-13.158 3.185-26.819 5.069-40.96 5.069-14.121 0-27.802-1.884-40.96-5.069v114.739c13.384 1.925 27.064 2.97 40.96 2.97 13.926 0 27.587-1.055 40.96-2.97zM423.127 718.94v-110.889c0-3.338 0.881-6.441 2.304-9.216-32.123-16.609-58.378-42.885-74.998-74.988-2.775 1.413-5.878 2.294-9.216 2.294h-110.889c27.576 92.314 100.485 165.233 192.799 192.799zM218.327 444.211c0 13.906 1.065 27.576 2.98 40.96h114.739c-3.195-13.158-5.079-26.829-5.079-40.96s1.884-27.802 5.079-40.96h-114.739c-1.915 13.384-2.98 27.054-2.98 40.96zM230.328 362.291h110.879c3.338 0 6.441 0.881 9.216 2.294 16.62-32.113 42.885-58.378 74.998-74.988-1.423-2.775-2.304-5.878-2.304-9.216v-110.889c-92.303 27.556-165.212 100.475-192.788 192.799zM464.087 160.461v114.739c13.158-3.195 26.839-5.069 40.96-5.069 14.141 0 27.802 1.884 40.96 5.069v-114.739c-13.384-1.925-27.044-2.97-40.96-2.97-13.896 0-27.576 1.044-40.96 2.97zM586.967 169.482v110.889c0 3.338-0.86 6.441-2.284 9.216 32.123 16.609 58.378 42.885 74.977 74.988 2.775-1.413 5.878-2.294 9.216-2.294h110.899c-27.566-92.314-100.485-165.233-192.809-192.799z" />
<glyph unicode="&#xe94d;" glyph-name="settings" d="M201.626 367.636h67.164l11.817-35.43-52.5-52.49c-7.997-7.997-7.997-20.961 0-28.959l81.92-81.92c7.997-7.997 20.982-7.997 28.959 0l52.5 52.49 35.42-11.807v-67.164c0-11.305 9.175-20.48 20.48-20.48h122.88c11.315 0 20.48 9.175 20.48 20.48v67.154l35.441 11.807 52.48-52.49c7.997-7.997 20.982-7.997 28.959 0l81.92 81.92c7.997 7.997 7.997 20.961 0 28.959l-52.48 52.49 11.796 35.43h67.164c11.315 0 20.48 9.175 20.48 20.48v122.88c0 11.305-9.165 20.48-20.48 20.48h-67.164l-11.796 35.43 52.48 52.49c7.997 7.997 7.997 20.961 0 28.959l-81.92 81.92c-7.977 7.997-20.961 7.997-28.959 0l-52.48-52.49-35.441 11.807v67.164c0 11.305-9.165 20.48-20.48 20.48h-122.88c-11.305 0-20.48-9.175-20.48-20.48v-67.164l-35.42-11.807-52.5 52.49c-7.977 7.997-20.961 7.997-28.959 0l-81.92-81.92c-7.997-7.997-7.997-20.961 0-28.959l52.5-52.49-11.817-35.43h-67.164c-11.305 0-20.48-9.175-20.48-20.48v-122.88c0-11.305 9.185-20.47 20.48-20.47zM222.106 490.516h61.44c8.817 0 16.64 5.642 19.436 13.998l20.48 61.44c2.437 7.363 0.532 15.483-4.956 20.961l-46.95 46.961 52.951 52.961 46.961-46.961c5.478-5.478 13.599-7.393 20.961-4.946l61.44 20.48c8.356 2.796 13.998 10.609 13.998 19.436v61.44h81.92v-61.44c0-8.817 5.642-16.64 14.008-19.436l61.44-20.48c7.373-2.447 15.473-0.543 20.951 4.946l46.961 46.961 52.961-52.961-46.961-46.961c-5.478-5.478-7.404-13.599-4.936-20.961l20.48-61.44c2.785-8.356 10.609-13.998 19.425-13.998h61.44v-81.92h-61.44c-8.806 0-16.64-5.642-19.425-13.998l-20.48-61.44c-2.458-7.363-0.543-15.483 4.936-20.961l46.961-46.961-52.961-52.961-46.961 46.961c-5.478 5.489-13.599 7.414-20.951 4.946l-61.44-20.48c-8.366-2.785-14.008-10.609-14.008-19.425v-61.44h-81.92v61.44c0 8.817-5.642 16.64-13.998 19.425l-61.44 20.48c-7.342 2.447-15.473 0.532-20.961-4.946l-46.961-46.961-52.951 52.961 46.95 46.961c5.489 5.478 7.404 13.599 4.956 20.961l-20.48 61.44c-2.796 8.356-10.619 13.998-19.436 13.998h-61.44v81.92zM508.826 367.636c45.179 0 81.92 36.751 81.92 81.92s-36.741 81.92-81.92 81.92c-45.158 0-81.92-36.751-81.92-81.92s36.762-81.92 81.92-81.92zM508.826 490.516c22.589 0 40.96-18.381 40.96-40.96s-18.371-40.96-40.96-40.96c-22.579 0-40.96 18.381-40.96 40.96s18.381 40.96 40.96 40.96z" />
<glyph unicode="&#xe94e;" glyph-name="sonido_01" d="M223.365 305.254h114.401l178.319-178.319c3.922-3.922 9.165-6.001 14.479-6.001 2.642 0 5.304 0.512 7.844 1.556 7.66 3.174 12.636 10.639 12.636 18.924v614.4c0 8.284-4.977 15.749-12.636 18.924-7.68 3.174-16.456 1.434-22.323-4.444l-178.319-178.319h-114.401c-11.305 0-20.48-9.175-20.48-20.48v-245.76c0-11.315 9.185-20.48 20.48-20.48zM243.845 551.014h102.4c5.437 0 10.639 2.161 14.479 6.001l149.361 149.361v-515.523l-149.361 149.361c-3.84 3.84-9.042 6.001-14.479 6.001h-102.4v204.8zM598.006 341.975c4.004-4.004 9.236-6.001 14.479-6.001s10.476 1.997 14.479 6.001l77.681 77.681 77.681-77.681c4.004-4.004 9.236-6.001 14.479-6.001s10.476 1.997 14.479 6.001c7.997 7.997 7.997 20.961 0 28.959l-77.681 77.681 77.681 77.681c7.997 7.997 7.997 20.961 0 28.959s-20.961 7.997-28.959 0l-77.681-77.681-77.681 77.681c-7.997 7.997-20.961 7.997-28.959 0s-7.997-20.961 0-28.959l77.681-77.681-77.681-77.681c-7.997-7.997-7.997-20.961 0-28.959z" />
<glyph unicode="&#xe94f;" glyph-name="sonido_02" d="M223.365 305.254h114.401l178.319-178.319c3.922-3.922 9.165-6.001 14.479-6.001 2.642 0 5.304 0.512 7.844 1.556 7.66 3.174 12.636 10.639 12.636 18.924v614.4c0 8.284-4.977 15.749-12.636 18.924s-16.456 1.434-22.323-4.444l-178.319-178.319h-114.401c-11.305 0-20.48-9.175-20.48-20.48v-245.76c0-11.315 9.175-20.48 20.48-20.48zM243.845 551.014h102.4c5.437 0 10.639 2.161 14.479 6.001l149.361 149.361v-515.523l-149.361 149.361c-3.84 3.84-9.042 6.001-14.479 6.001h-102.4v204.8zM612.485 366.694c-11.305 0-20.48-9.175-20.48-20.48s9.175-20.48 20.48-20.48c67.758 0 122.88 55.122 122.88 122.88s-55.122 122.88-122.88 122.88c-11.305 0-20.48-9.175-20.48-20.48s9.175-20.48 20.48-20.48c45.179 0 81.92-36.751 81.92-81.92s-36.741-81.92-81.92-81.92z" />
<glyph unicode="&#xe950;" glyph-name="sonido_03" d="M223.365 305.254h114.401l178.319-178.319c3.922-3.922 9.165-6.001 14.479-6.001 2.642 0 5.304 0.512 7.844 1.556 7.66 3.174 12.636 10.639 12.636 18.924v614.4c0 8.284-4.977 15.749-12.636 18.924-7.68 3.174-16.456 1.434-22.323-4.444l-178.319-178.319h-114.401c-11.295 0-20.48-9.175-20.48-20.48v-245.76c0-11.315 9.185-20.48 20.48-20.48zM243.845 551.014h102.4c5.437 0 10.639 2.161 14.479 6.001l149.361 149.361v-515.523l-149.361 149.361c-3.84 3.84-9.042 6.001-14.479 6.001h-102.4v204.8zM612.485 366.694c-11.305 0-20.48-9.175-20.48-20.48s9.175-20.48 20.48-20.48c67.758 0 122.88 55.122 122.88 122.88s-55.122 122.88-122.88 122.88c-11.305 0-20.48-9.175-20.48-20.48s9.175-20.48 20.48-20.48c45.179 0 81.92-36.751 81.92-81.92s-36.741-81.92-81.92-81.92zM612.485 223.334c124.221 0 225.28 101.059 225.28 225.28s-101.059 225.28-225.28 225.28c-11.305 0-20.48-9.175-20.48-20.48s9.175-20.48 20.48-20.48c101.642 0 184.32-82.678 184.32-184.32s-82.678-184.32-184.32-184.32c-11.305 0-20.48-9.175-20.48-20.48s9.185-20.48 20.48-20.48z" />
<glyph unicode="&#xe951;" glyph-name="sube" d="M534.784 593.971c-7.741 8.202-22.036 8.202-29.778 0l-174.080-184.32c-7.762-8.223-7.393-21.187 0.829-28.948s21.187-7.393 28.948 0.829l159.191 168.55 159.191-168.55c4.035-4.27 9.452-6.42 14.899-6.42 5.048 0 10.097 1.853 14.049 5.591 8.223 7.762 8.591 20.726 0.829 28.948l-174.080 184.32zM519.895 774.472c-87.521 0-169.81-34.089-231.69-95.98-61.901-61.891-96-144.179-96-231.7s34.099-169.81 95.99-231.7c61.891-61.891 144.169-95.98 231.69-95.98s169.8 34.089 231.69 95.98c61.901 61.891 96 144.179 96 231.7s-34.099 169.81-95.99 231.69c-61.88 61.891-144.159 95.99-231.69 95.99zM722.627 244.050c-54.149-54.159-126.147-83.988-202.721-83.988s-148.572 29.829-202.732 83.988c-54.17 54.149-83.999 126.147-83.999 202.732 0 76.575 29.829 148.582 83.999 202.732 54.149 54.159 126.147 83.988 202.721 83.988s148.572-29.829 202.732-83.988c54.17-54.149 83.999-126.147 83.999-202.732 0-76.575-29.829-148.572-83.999-202.732z" />
<glyph unicode="&#xe952;" glyph-name="tablet" d="M774.523 139.633v614.4c0 11.305-9.175 20.48-20.48 20.48h-450.56c-11.305 0-20.48-9.175-20.48-20.48v-614.4c0-11.305 9.175-20.48 20.48-20.48h450.56c11.315 0 20.48 9.165 20.48 20.48zM733.563 160.113h-409.6v573.44h409.6v-573.44zM514.232 235.991c-3.789-3.789-5.939-9.114-5.939-14.438s2.15-10.65 6.042-14.541c3.789-3.789 9.114-5.939 14.438-5.939 5.315 0 10.65 2.15 14.541 6.042 3.789 3.789 5.939 9.124 5.939 14.438 0 5.335-2.15 10.65-6.042 14.438-7.588 7.68-21.299 7.68-28.979 0zM477.573 651.633h102.4c11.305 0 20.48 9.175 20.48 20.48s-9.175 20.48-20.48 20.48h-102.4c-11.305 0-20.48-9.175-20.48-20.48s9.165-20.48 20.48-20.48z" />
<glyph unicode="&#xe953;" glyph-name="texto" d="M713.789 129.751c22.589 0 40.96 18.371 40.96 40.96v573.44c0 22.589-18.371 40.96-40.96 40.96h-266.24c-16.773 0-37.571-8.612-49.439-20.48l-114.391-114.391c-11.868-11.868-20.48-32.666-20.48-49.449v-430.080c0-22.589 18.371-40.96 40.96-40.96h409.59zM713.789 744.151v-573.44h-409.6v430.080h102.4c22.589 0 40.96 18.371 40.96 40.96v102.4h266.24zM406.589 715.192v-73.441h-73.441l73.441 73.441zM508.989 621.271h122.88c11.305 0 20.48 9.175 20.48 20.48s-9.175 20.48-20.48 20.48h-122.88c-11.315 0-20.48-9.175-20.48-20.48s9.175-20.48 20.48-20.48zM631.869 559.831h-245.76c-11.315 0-20.48-9.175-20.48-20.48s9.165-20.48 20.48-20.48h245.76c11.305 0 20.48 9.175 20.48 20.48s-9.165 20.48-20.48 20.48zM631.869 457.431h-245.76c-11.315 0-20.48-9.175-20.48-20.48s9.165-20.48 20.48-20.48h245.76c11.305 0 20.48 9.175 20.48 20.48s-9.165 20.48-20.48 20.48zM631.869 355.031h-245.76c-11.315 0-20.48-9.175-20.48-20.48s9.165-20.48 20.48-20.48h245.76c11.305 0 20.48 9.175 20.48 20.48s-9.165 20.48-20.48 20.48zM631.869 252.631h-245.76c-11.315 0-20.48-9.175-20.48-20.48s9.165-20.48 20.48-20.48h245.76c11.305 0 20.48 9.175 20.48 20.48s-9.165 20.48-20.48 20.48z" />
<glyph unicode="&#xe954;" glyph-name="texto_lapiz" d="M212.029 191.191c0-22.589 18.371-40.96 40.96-40.96h368.64c22.589 0 40.96 18.371 40.96 40.96v409.6c0 16.794-8.612 37.581-20.48 49.439l-93.921 93.932c-11.868 11.858-32.655 20.47-49.439 20.47h-245.76c-22.589 0-40.96-18.371-40.96-40.96v-532.48zM592.671 641.751h-52.951v52.961l52.951-52.961zM252.989 723.671h245.76v-81.92c0-22.589 18.371-40.96 40.96-40.96h81.92v-409.6h-368.64v532.48zM826.429 764.631h-40.96c-22.589 0-40.96-18.371-40.96-40.96v-471.040c0-14.428 4.864-35.052 11.315-47.964l22.641-45.281c6.001-12.001 16.015-18.883 27.484-18.883s21.484 6.881 27.484 18.883l22.641 45.281c6.451 12.913 11.325 33.526 11.325 47.964v471.040c-0.010 22.589-18.381 40.96-40.97 40.96zM826.429 723.671v-61.44h-40.96v61.44h40.96zM819.436 222.996l-13.486-26.962-13.476 26.962c-3.604 7.188-7.004 21.596-7.004 29.645v368.64h40.96v-368.64c0-8.049-3.4-22.456-6.994-29.645zM314.429 621.271h112.64c11.305 0 20.48 9.175 20.48 20.48s-9.175 20.48-20.48 20.48h-112.64c-11.315 0-20.48-9.175-20.48-20.48s9.175-20.48 20.48-20.48zM560.189 559.831h-245.76c-11.315 0-20.48-9.175-20.48-20.48s9.165-20.48 20.48-20.48h245.76c11.305 0 20.48 9.175 20.48 20.48s-9.165 20.48-20.48 20.48zM560.189 477.911h-245.76c-11.315 0-20.48-9.175-20.48-20.48s9.165-20.48 20.48-20.48h245.76c11.305 0 20.48 9.175 20.48 20.48s-9.165 20.48-20.48 20.48zM560.189 395.991h-245.76c-11.315 0-20.48-9.175-20.48-20.48s9.165-20.48 20.48-20.48h245.76c11.305 0 20.48 9.175 20.48 20.48s-9.165 20.48-20.48 20.48zM560.189 314.071h-245.76c-11.315 0-20.48-9.175-20.48-20.48s9.165-20.48 20.48-20.48h245.76c11.305 0 20.48 9.175 20.48 20.48s-9.165 20.48-20.48 20.48z" />
<glyph unicode="&#xe955;" glyph-name="usuario" d="M526.694 352.819c84.695 0 153.6 87.276 153.6 194.56s-68.905 194.56-153.6 194.56-153.6-87.276-153.6-194.56 68.895-194.56 153.6-194.56zM526.694 700.979c61.061 0 112.64-70.339 112.64-153.6s-51.579-153.6-112.64-153.6c-61.061 0-112.64 70.339-112.64 153.6s51.579 153.6 112.64 153.6zM241.019 318.341l-40.96-122.88c-2.079-6.246-1.034-13.107 2.816-18.452 3.84-5.345 10.035-8.509 16.609-8.509h614.4c6.584 0 12.769 3.164 16.609 8.509 3.85 5.335 4.895 12.196 2.816 18.452l-40.96 122.88c-2.14 6.41-7.301 11.346-13.804 13.21l-143.36 40.96c-4.936 1.423-10.199 0.922-14.787-1.372l-113.715-56.863-113.725 56.863c-4.588 2.294-9.851 2.785-14.787 1.372l-143.36-40.96c-6.492-1.864-11.653-6.799-13.793-13.21zM401.787 330.936l115.753-57.876c5.765-2.877 12.564-2.877 18.319 0l115.753 57.876 125.317-35.799 28.559-85.678h-557.588l28.559 85.678 125.327 35.799z" />
<glyph unicode="&#xe956;" glyph-name="ventanas" d="M198.656 483.174h245.76c11.315 0 20.48 9.175 20.48 20.48v245.76c0 11.305-9.165 20.48-20.48 20.48h-245.76c-11.305 0-20.48-9.175-20.48-20.48v-245.76c0-11.305 9.175-20.48 20.48-20.48zM219.136 728.934h204.8v-204.8h-204.8v204.8zM833.536 749.414c0 11.305-9.165 20.48-20.48 20.48h-245.76c-11.305 0-20.48-9.175-20.48-20.48v-245.76c0-11.305 9.175-20.48 20.48-20.48h245.76c11.315 0 20.48 9.175 20.48 20.48v245.76zM792.576 524.134h-204.8v204.8h204.8v-204.8zM198.656 114.534h256c11.315 0 20.48 9.175 20.48 20.48v256c0 11.305-9.165 20.48-20.48 20.48h-256c-11.305 0-20.48-9.175-20.48-20.48v-256c0-11.305 9.175-20.48 20.48-20.48zM219.136 370.534h215.040v-215.040h-215.040v215.040zM813.056 401.254h-245.76c-11.305 0-20.48-9.175-20.48-20.48v-245.76c0-11.305 9.175-20.48 20.48-20.48h245.76c11.315 0 20.48 9.175 20.48 20.48v245.76c0 11.315-9.165 20.48-20.48 20.48zM792.576 155.494h-204.8v204.8h204.8v-204.8z" />
<glyph unicode="&#xe957;" glyph-name="location" d="M512 960c-176.732 0-320-143.268-320-320 0-320 320-704 320-704s320 384 320 704c0 176.732-143.27 320-320 320zM512 448c-106.040 0-192 85.96-192 192s85.96 192 192 192 192-85.96 192-192-85.96-192-192-192z" />
<glyph unicode="&#xe958;" glyph-name="facebook" d="M1024 448c0 282.765-229.237 512-512 512-282.765 0-512-229.235-512-512 0-282.763 229.235-512 512-512 282.763 0 512 229.237 512 512zM46.545 448c0 257.071 208.384 465.455 465.455 465.455s465.455-208.384 465.455-465.455-208.384-465.455-465.455-465.455-465.455 208.384-465.455 465.455zM531.642 152.484v295.516h97.513l15.407 97.931h-112.919v49.105c0 25.553 8.378 49.943 45.056 49.943h73.308v97.745h-104.075c-87.505 0-111.383-57.622-111.383-137.495v-59.253h-60.043v-97.976h60.043v-295.516h97.094z" />
<glyph unicode="&#xe959;" glyph-name="linkedin" d="M512 960c-282.782 0-512-229.218-512-512s229.218-512 512-512c282.782 0 512 229.218 512 512s-229.218 512-512 512zM512 16c-238.594 0-432 193.406-432 432s193.406 432 432 432 432-193.406 432-432-193.406-432-432-432zM256.188 192.218h96v384h-96v-384zM640.188 576.218c-82.188-1.376-122.624-61.282-128-64v64h-96v-384h96v224c0 8.216 20.25 74 96 64 40.688-2.656 62.624-56.468 64-64v-224l95.624-0.438v265.844c-3.374 38.376-22.562 117.22-127.624 118.594zM304.188 704.218c-26.5 0-48-21.468-48-48s21.5-48 48-48 48 21.468 48 48-21.5 48-48 48z" />
<glyph unicode="&#xe95a;" glyph-name="twitter" d="M731.556 549.794c0 5.167-0.094 10.287-0.326 15.36 22.11 16.478 41.286 37.097 56.461 60.695-20.294-9.124-42.078-15.221-64.979-17.779 23.366 14.383 41.286 37.376 49.758 64.977-21.877-13.265-46.080-22.761-71.821-27.695-20.619 23.46-50.035 38.4-82.573 38.959-62.464 1.024-113.105-51.759-113.105-117.899 0-9.402 0.977-18.526 2.931-27.322-94.067 6.050-177.43 55.017-233.193 128.837-9.728-17.687-15.313-38.353-15.313-60.51 0-41.892 19.968-79.127 50.315-101.097-18.571 0.837-35.979 6.469-51.245 15.686 0-0.512 0-1.024 0-1.536 0-58.555 39.006-107.614 90.763-119.063-9.495-2.699-19.503-4.096-29.79-4.051-7.307 0.047-14.383 0.838-21.271 2.329 14.383-47.989 56.181-83.038 105.658-84.201-38.726-32.115-87.505-51.292-140.474-51.153-9.124 0-18.153 0.604-26.997 1.722 50.084-34.351 109.521-54.364 173.427-54.364 208.014-0.049 321.774 181.014 321.774 338.104zM1024 448c0 282.765-229.237 512-512 512-282.765 0-512-229.235-512-512 0-282.763 229.235-512 512-512 282.763 0 512 229.237 512 512zM46.545 448c0 257.071 208.384 465.455 465.455 465.455s465.455-208.384 465.455-465.455-208.384-465.455-465.455-465.455-465.455 208.384-465.455 465.455z" />
<glyph unicode="&#xe95b;" glyph-name="youtube" d="M536.535 81.682c-0.021 0 0 0 0 0-116.448 0-243.225 3.678-376.782 10.876-78.903 4.327-140.109 65.157-148.822 147.956-14.572 138.319-14.572 277.954 0 415.034 8.694 82.11 69.818 142.94 148.644 147.898 230.341 14.496 467.351 14.496 704.792 0 79.751-4.838 139.5-64.233 148.724-147.818 14.533-132.34 14.554-271.956 0.018-415.056-8.397-82.741-68.089-142.212-148.525-147.977-101.227-7.234-211.601-10.913-328.049-10.913zM509.296 775.007c-116.075 0-232.918-3.657-347.282-10.836-60.239-3.776-105.239-49.109-111.984-112.77-14.279-134.326-14.279-271.17 0-406.775 6.745-64.175 51.686-109.486 111.827-112.791 132.851-7.158 258.917-10.818 374.64-10.818 115.524 0 224.952 3.639 325.255 10.796 60.692 4.367 105.79 49.66 112.182 112.733 14.279 140.345 14.279 277.189 0.018 406.775-7.020 63.859-52.038 109.211-111.984 112.85-117.908 7.197-236.581 10.836-352.674 10.836zM411.824 587.325v-269.931l259.214 134.050-259.214 135.88z" />
</font>
</defs>
</svg>
